<?xml version="1.0" standalone="no"?>
<!DOCTYPE svg PUBLIC "-//W3C//DTD SVG 20010904//EN"
 "http://www.w3.org/TR/2001/REC-SVG-20010904/DTD/svg10.dtd">
<svg version="1.0" xmlns="http://www.w3.org/2000/svg"
 width="810.000000pt" height="1440.000000pt" viewBox="0 0 810.000000 1440.000000"
 preserveAspectRatio="xMidYMid meet">

<g transform="translate(0.000000,1440.000000) scale(0.100000,-0.100000)"
fill="#000000" stroke="none">
<path d="M3266 9895 c2 -16 2 -24 -2 -17 -3 6 -12 12 -20 12 -8 0 -26 7 -39
16 -24 16 -81 12 -71 -4 7 -12 -7 -29 -31 -36 -24 -8 -33 9 -10 17 6 2 -5 3
-25 3 -22 -1 -40 -7 -43 -15 -3 -9 0 -11 10 -8 8 4 17 2 20 -3 4 -6 -6 -15
-20 -20 -15 -6 -29 -20 -32 -31 -3 -11 -9 -16 -12 -11 -3 6 -19 -1 -36 -15
-23 -19 -24 -22 -7 -13 13 6 26 9 29 6 12 -12 -48 -26 -67 -16 -12 7 -26 7
-42 0 l-23 -10 25 1 c43 2 46 -2 10 -14 -24 -9 -37 -9 -42 -2 -5 6 -8 3 -8 -7
0 -10 -6 -18 -14 -18 -8 0 -16 -3 -18 -8 -1 -4 -24 -25 -50 -46 -56 -45 -121
-139 -124 -179 -1 -15 -7 -33 -12 -40 -20 -24 -42 -137 -42 -215 0 -80 9 -125
50 -250 22 -69 24 -86 12 -78 -4 2 -6 -25 -4 -62 3 -37 9 -70 14 -73 7 -4 7
-13 0 -25 -11 -22 -10 -293 2 -312 4 -7 20 -19 37 -27 21 -11 29 -23 29 -43 1
-25 21 -118 33 -152 3 -8 11 -41 17 -73 7 -36 15 -55 22 -51 7 4 8 2 4 -5 -10
-16 3 -71 18 -71 6 0 17 -13 23 -30 10 -26 9 -30 -5 -31 -10 -1 -3 -5 13 -9
28 -7 28 -8 5 -9 -25 -2 -25 -2 5 -16 17 -7 23 -14 15 -14 -12 -1 -11 -4 3
-12 9 -6 15 -14 12 -20 -3 -5 1 -6 9 -3 12 5 16 0 16 -20 0 -14 5 -25 11 -24
6 2 14 -3 16 -9 3 -7 -3 -13 -13 -13 -26 0 31 -41 69 -50 l32 -8 -29 -1 c-24
-1 -27 -3 -16 -16 7 -8 20 -15 29 -16 12 0 11 -2 -4 -9 -17 -7 -18 -9 -2 -9
19 -1 51 -17 79 -40 13 -10 15 -17 7 -27 -8 -10 -3 -17 20 -28 36 -19 47 -20
34 -3 -6 6 -13 20 -16 29 -7 21 19 14 27 -8 4 -9 21 -14 50 -14 53 0 78 -8 69
-23 -4 -7 0 -8 13 -2 10 4 40 10 67 13 26 2 50 9 53 13 3 5 14 9 25 9 10 0 19
5 19 10 0 6 4 9 8 8 4 -2 23 14 41 35 33 37 37 52 6 21 -13 -13 -18 -14 -31
-3 -8 7 -13 21 -11 31 6 20 -9 25 -16 6 -2 -7 -8 -9 -13 -5 -5 4 -2 12 5 16 8
5 11 17 6 30 -3 12 -11 18 -17 15 -8 -5 -9 -1 -5 9 16 40 19 52 9 38 -8 -11
-11 -10 -15 5 -4 16 -5 17 -6 2 0 -10 -6 -18 -12 -18 -5 0 -7 5 -4 10 8 13
-17 38 -33 32 -6 -2 -12 2 -12 10 -1 9 -5 7 -14 -5 -13 -17 -15 -16 -21 13 -5
21 -11 30 -21 26 -8 -3 -14 -1 -14 4 0 5 -10 10 -22 12 -13 2 -22 9 -20 16 2
14 5 14 -38 2 l-35 -9 23 19 c12 10 28 33 34 50 9 27 15 31 39 28 15 -3 26 -1
23 4 -3 4 2 8 11 8 29 0 63 30 58 50 -4 15 -1 18 19 13 20 -6 22 -5 9 10 -7 9
-17 15 -21 12 -4 -3 -20 2 -36 9 -16 8 -61 16 -101 19 -66 4 -72 3 -81 -18 -9
-19 -6 -26 21 -46 17 -13 40 -29 52 -36 11 -7 14 -12 8 -13 -7 0 -13 -6 -13
-14 0 -8 -10 -14 -22 -15 -13 -1 -42 -3 -64 -4 -23 -1 -51 -10 -61 -19 -11
-10 -26 -18 -34 -18 -12 0 -12 2 0 9 10 7 8 18 -12 60 -21 45 -23 57 -13 84 6
18 13 34 16 37 3 3 13 17 23 33 24 37 34 36 147 -22 19 -10 170 -14 193 -6 13
6 14 11 6 26 -8 15 -6 19 8 20 12 1 10 3 -7 9 -25 8 -25 8 5 10 149 10 197 9
186 -4 -8 -10 -9 -16 -1 -21 6 -3 8 -10 5 -15 -3 -5 -1 -11 4 -15 7 -4 7 -15
0 -32 -6 -17 -6 -30 0 -36 7 -7 1 -22 -18 -46 -28 -36 -31 -64 -6 -55 10 4 12
-1 9 -18 -5 -22 -5 -22 7 -3 7 10 25 30 41 43 17 14 28 34 28 48 0 14 4 23 9
20 5 -3 11 4 14 15 3 12 10 18 16 15 7 -5 9 3 5 24 -4 19 -2 30 5 30 9 0 9 5
1 20 -6 11 -7 20 -2 20 5 0 16 15 26 33 9 17 14 23 11 12 -4 -12 -3 -16 3 -10
5 6 14 28 21 50 13 40 12 56 -10 210 -13 96 -16 156 -7 161 17 11 7 51 -14 62
-13 6 -18 11 -12 11 7 1 9 12 6 27 -3 16 -9 23 -18 20 -8 -3 -14 1 -14 10 0
21 62 16 113 -9 22 -10 41 -16 44 -13 3 3 -2 8 -11 12 -9 3 -13 10 -10 15 16
27 -43 77 -94 80 -10 0 -12 3 -4 6 6 2 10 9 6 14 -3 5 2 10 10 10 29 3 34 4
42 12 4 4 16 7 26 7 18 0 18 1 2 17 -11 11 -13 18 -5 21 25 8 -3 22 -45 22
-25 0 -55 5 -67 12 -12 6 -38 13 -57 15 -37 4 -72 37 -63 60 3 7 -1 13 -8 14
-8 1 -3 5 11 9 17 5 19 8 8 9 -10 1 -18 6 -18 12 0 6 7 8 16 5 13 -5 14 -2 8
11 -4 10 -8 65 -9 122 -1 80 -5 106 -16 110 -8 2 -19 11 -26 20 -11 14 -12 14
-13 -4 -1 -11 -4 -14 -7 -7 -2 6 -11 12 -18 12 -23 0 -45 40 -35 61 6 10 7 25
4 33 -6 15 16 22 49 17 4 0 7 3 7 9 0 6 -6 10 -13 10 -8 0 -14 7 -14 15 0 8 7
15 14 15 8 0 11 -5 7 -12 -4 -7 -3 -8 5 -4 6 4 8 12 5 18 -5 7 2 9 22 4 l29
-6 -27 15 c-16 9 -28 20 -28 26 0 6 -7 8 -16 5 -8 -3 -13 -2 -10 3 7 10 46 22
44 12 -2 -18 3 -31 14 -31 6 0 19 -7 29 -16 10 -9 24 -14 31 -12 8 3 0 12 -19
21 -35 18 -58 45 -30 34 10 -3 17 -2 17 2 0 5 23 -3 50 -17 28 -14 50 -29 50
-34 0 -4 8 -8 18 -8 15 1 15 2 -2 15 -11 8 -17 18 -13 21 4 4 22 -5 40 -19 19
-14 38 -23 42 -19 5 4 5 1 1 -6 -5 -7 -15 -11 -25 -7 -11 4 -9 -1 6 -14 12
-12 27 -21 33 -21 5 0 10 -6 10 -13 0 -22 47 -39 63 -23 7 8 25 12 39 9 32 -6
45 28 19 51 -25 22 -31 20 -32 -11 0 -28 0 -28 -11 -5 -7 13 -17 21 -25 18 -7
-3 -13 0 -13 7 0 7 -22 19 -49 26 -28 7 -55 19 -62 27 -7 9 -21 13 -34 10 -12
-3 -32 2 -45 12 -14 9 -36 22 -50 29 -24 11 -24 11 -3 12 12 1 29 4 39 8 12 4
15 3 10 -5 -10 -16 6 -15 29 2 17 12 16 14 -16 24 -19 6 -43 13 -54 16 -11 3
-1 4 22 2 23 -2 43 0 45 5 3 9 46 -12 89 -44 20 -15 22 -19 9 -27 -8 -6 -25
-8 -37 -5 -41 10 -24 -4 19 -15 27 -8 37 -14 29 -19 -17 -11 13 -23 34 -15 12
5 13 9 3 21 -10 12 -9 14 8 11 14 -2 18 2 16 17 -2 11 -9 23 -14 26 -7 4 -6 9
1 13 14 9 -24 46 -58 56 -22 6 -23 9 -9 15 11 4 27 -1 44 -14 19 -15 30 -18
34 -10 12 19 22 -8 11 -28 -7 -13 -5 -23 6 -36 9 -9 19 -34 23 -55 l8 -37 1
33 c0 18 -6 49 -14 69 -13 31 -13 34 0 23 23 -19 18 4 -5 25 -11 10 -20 21
-20 26 0 4 9 5 20 2 11 -3 20 -9 20 -14 0 -5 15 -16 33 -25 30 -16 31 -16 18
0 -19 23 -101 79 -101 70 0 -4 -6 0 -13 10 -29 40 -182 117 -247 124 -40 5
-42 7 -20 14 15 5 6 5 -25 2 -27 -4 -58 -7 -67 -7 -9 -1 -15 -4 -13 -8 2 -3
-19 -7 -47 -8 -28 -1 -55 -4 -59 -7 -15 -9 -49 6 -49 22 0 9 11 14 33 15 17 0
41 4 52 9 14 7 0 9 -47 7 l-67 -1 5 -31z m-66 5 c8 -5 11 -12 8 -16 -10 -9
-58 4 -58 16 0 13 30 13 50 0z m377 -26 c-3 -3 -12 -4 -19 -1 -8 3 -5 6 6 6
11 1 17 -2 13 -5z m43 -10 c0 -2 -7 -4 -15 -4 -8 0 -15 4 -15 10 0 5 7 7 15 4
8 -4 15 -8 15 -10z m-305 -24 c3 -6 -1 -7 -9 -4 -18 7 -21 14 -7 14 6 0 13 -4
16 -10z m-283 -32 c-7 -7 -12 -8 -12 -2 0 14 12 26 19 19 2 -3 -1 -11 -7 -17z
m472 10 c-7 -17 -100 -88 -114 -88 -20 0 19 44 62 72 49 30 60 33 52 16z m146
-3 c17 -9 30 -22 30 -31 0 -8 11 -19 24 -24 13 -5 27 -14 32 -21 5 -9 2 -10
-12 -4 -21 8 -57 13 -122 16 -48 2 -69 19 -23 19 16 0 33 5 37 11 5 8 -1 10
-19 7 -15 -3 -24 -2 -22 3 3 4 -5 10 -17 12 -14 3 -8 5 15 6 23 0 36 5 32 11
-9 15 12 12 45 -5z m-385 -65 c-3 -5 -11 -10 -16 -10 -6 0 -7 5 -4 10 3 6 11
10 16 10 6 0 7 -4 4 -10z m565 -32 c0 -6 -6 -5 -15 2 -8 7 -15 14 -15 16 0 2
7 1 15 -2 8 -4 15 -11 15 -16z m-30 -74 c0 -8 -5 -12 -10 -9 -6 4 -8 11 -5 16
9 14 15 11 15 -7z m-1159 -157 c-10 -9 -11 -8 -5 6 3 10 9 15 12 12 3 -3 0
-11 -7 -18z m1192 -13 c-4 -11 -9 -12 -19 -3 -20 16 -17 28 5 22 12 -3 17 -11
14 -19z m-992 -375 c-12 -36 -15 -62 -10 -77 7 -17 4 -27 -11 -40 -11 -9 -20
-22 -20 -29 0 -6 -4 -14 -8 -17 -15 -9 5 87 33 157 32 80 43 84 16 6z m632
-205 c4 -4 -5 -21 -19 -37 -23 -28 -25 -37 -19 -81 8 -62 24 -89 64 -106 39
-16 43 -50 6 -50 -29 0 -30 -5 -9 -55 14 -33 14 -39 -1 -61 -8 -13 -23 -24
-33 -24 -9 0 -42 -16 -72 -35 -30 -19 -66 -35 -80 -35 -24 1 -24 1 7 15 27 11
33 20 38 60 4 25 4 65 -1 88 -14 77 -10 174 9 195 9 10 17 27 17 38 0 53 66
115 93 88z m-702 -67 c1 -17 3 -15 9 8 8 30 8 30 9 3 1 -34 -8 -60 -20 -52 -5
3 -9 -3 -9 -12 0 -10 3 -14 7 -11 12 13 31 -28 26 -55 -5 -24 -3 -26 17 -21
l22 6 -7 -104 c-4 -57 -13 -115 -21 -129 l-14 -25 4 26 c4 24 3 26 -20 15 -17
-8 -22 -16 -18 -29 5 -16 2 -18 -16 -12 -17 5 -21 4 -17 -6 2 -8 10 -13 16
-11 6 1 11 -2 11 -6 0 -14 -11 -21 -26 -15 -19 7 -18 69 1 77 8 3 15 11 15 18
0 9 -3 9 -10 -2 -7 -10 -9 36 -4 145 3 88 10 164 15 170 5 5 9 20 9 33 0 29
20 19 21 -11z m450 -282 c-6 -55 -7 -58 -19 -37 -9 16 -10 27 -2 41 5 11 10
35 10 53 1 23 3 28 9 18 4 -8 5 -42 2 -75z m26 -70 c0 -8 -4 -12 -9 -9 -5 3
-6 10 -3 15 9 13 12 11 12 -6z m305 -87 c-9 -9 -6 -19 14 -45 14 -18 21 -33
17 -33 -4 0 -1 -5 7 -10 10 -7 -11 -10 -72 -8 -49 1 -88 5 -88 8 0 4 -10 11
-22 17 -21 9 -21 10 10 21 18 6 32 8 32 3 0 -4 16 -5 35 -3 22 3 35 10 35 19
0 16 21 42 35 43 5 0 4 -5 -3 -12z m-811 -21 c-6 -8 -9 -16 -6 -19 3 -2 7 -24
10 -48 3 -23 8 -47 12 -53 3 -6 1 -7 -5 -3 -10 6 -32 90 -32 121 0 8 7 15 16
15 13 0 14 -3 5 -13z m29 -17 c0 -5 -5 -10 -11 -10 -5 0 -7 5 -4 10 3 6 8 10
11 10 2 0 4 -4 4 -10z m79 -72 c1 -21 -2 -38 -7 -38 -4 0 -8 28 -9 63 -1 45 1
55 7 37 4 -14 8 -42 9 -62z m-82 20 c-3 -7 -5 -2 -5 12 0 14 2 19 5 13 2 -7 2
-19 0 -25z m363 -18 c0 -5 -4 -10 -10 -10 -5 0 -10 5 -10 10 0 6 5 10 10 10 6
0 10 -4 10 -10z m50 -10 c0 -5 -7 -10 -15 -10 -8 0 -15 5 -15 10 0 6 7 10 15
10 8 0 15 -4 15 -10z m54 0 c33 -12 34 -30 1 -30 -14 0 -29 8 -35 20 -12 23
-4 25 34 10z m244 -6 c-5 -27 -37 -42 -48 -24 -7 11 -12 12 -17 4 -10 -15
-133 -18 -133 -4 0 12 15 19 50 22 17 2 24 -1 22 -11 -2 -11 3 -10 24 3 14 10
34 16 44 13 10 -2 24 -1 31 4 21 13 31 11 27 -7z m-638 -158 c0 -3 -4 -8 -10
-11 -5 -3 -10 -1 -10 4 0 6 5 11 10 11 6 0 10 -2 10 -4z m70 -20 c0 -2 -7 -7
-16 -10 -8 -3 -12 -2 -9 4 6 10 25 14 25 6z m-60 -16 c0 -5 -7 -7 -15 -4 -8 4
-15 8 -15 10 0 2 7 4 15 4 8 0 15 -4 15 -10z m11 -34 c-9 -11 -9 -15 1 -19 8
-4 7 -6 -4 -6 -10 -1 -18 1 -18 3 0 2 -3 11 -6 20 -4 12 0 16 16 16 18 0 20
-3 11 -14z m26 -62 c-3 -3 -12 -4 -19 -1 -8 3 -5 6 6 6 11 1 17 -2 13 -5z
m303 -4 c0 -5 -4 -10 -9 -10 -6 0 -13 5 -16 10 -3 6 1 10 9 10 9 0 16 -4 16
-10z m-50 -35 c0 -17 -29 -40 -37 -31 -4 4 -1 11 6 15 7 5 11 13 8 18 -3 5 0
10 8 10 8 0 15 -6 15 -12z m-223 -11 c-3 -3 -12 -4 -19 -1 -8 3 -5 6 6 6 11 1
17 -2 13 -5z m168 -4 c-3 -5 -10 -10 -16 -10 -5 0 -9 5 -9 10 0 6 7 10 16 10
8 0 12 -4 9 -10z m-160 -20 c3 -5 2 -10 -4 -10 -5 0 -13 5 -16 10 -3 6 -2 10
4 10 5 0 13 -4 16 -10z m245 -30 c-19 -12 -50 -13 -50 -1 0 9 50 20 60 13 2
-2 -2 -7 -10 -12z m-192 -111 c9 0 12 -3 5 -5 -17 -7 -55 15 -47 28 4 7 10 5
16 -6 5 -9 17 -16 26 -17z m107 -79 c3 -6 -1 -7 -9 -4 -18 7 -21 14 -7 14 6 0
13 -4 16 -10z"/>
<path d="M3230 9910 c0 -5 5 -10 10 -10 6 0 10 5 10 10 0 6 -4 10 -10 10 -5 0
-10 -4 -10 -10z"/>
<path d="M3690 9660 c0 -5 5 -10 10 -10 6 0 10 5 10 10 0 6 -4 10 -10 10 -5 0
-10 -4 -10 -10z"/>
<path d="M3727 9629 c7 -7 15 -10 18 -7 3 3 -2 9 -12 12 -14 6 -15 5 -6 -5z"/>
<path d="M3900 9596 c0 -3 16 -22 35 -43 19 -21 37 -46 40 -55 3 -9 14 -19 23
-21 9 -3 5 -4 -10 -4 -16 1 -28 5 -28 9 0 4 -7 8 -15 8 -8 0 -15 -7 -15 -15 0
-8 9 -15 20 -15 21 0 28 -20 8 -21 -7 0 -4 -4 7 -9 18 -8 18 -9 2 -9 -10 -1
-26 3 -36 9 -12 6 -31 6 -55 -1 -61 -17 -44 -31 34 -29 19 0 50 -2 68 -5 28
-5 32 -9 21 -21 -10 -13 -7 -14 23 -11 36 4 36 4 26 -26 -8 -21 -8 -31 2 -37
6 -4 11 -10 11 -14 -1 -3 -1 -14 0 -23 0 -14 2 -13 9 5 5 12 15 22 22 22 9 0
9 -3 -2 -10 -12 -8 -12 -10 -1 -10 8 0 11 -7 8 -20 -3 -11 -2 -20 3 -20 4 0
10 -10 13 -22 4 -12 9 -19 13 -16 3 4 -2 42 -12 85 -10 43 -17 82 -16 87 5 17
-53 102 -107 159 -50 53 -91 86 -91 73z m100 -186 c0 -5 -5 -10 -11 -10 -5 0
-7 5 -4 10 3 6 8 10 11 10 2 0 4 -4 4 -10z"/>
<path d="M3845 9570 c3 -5 8 -10 11 -10 2 0 4 5 4 10 0 6 -5 10 -11 10 -5 0
-7 -4 -4 -10z"/>
<path d="M3830 9547 c14 -8 27 -12 30 -10 7 6 -23 23 -40 23 -8 0 -4 -6 10
-13z"/>
<path d="M3480 9470 c0 -5 5 -10 11 -10 5 0 7 5 4 10 -3 6 -8 10 -11 10 -2 0
-4 -4 -4 -10z"/>
<path d="M3551 9384 c0 -11 3 -14 6 -6 3 7 2 16 -1 19 -3 4 -6 -2 -5 -13z"/>
<path d="M3870 9353 c-8 -2 -21 -6 -28 -9 -10 -3 -9 -9 4 -28 8 -14 12 -31 8
-38 -4 -7 -3 -10 1 -5 5 4 16 0 26 -9 11 -10 19 -12 24 -5 3 6 2 11 -3 11 -12
0 -11 33 2 43 6 5 -1 6 -16 3 -16 -4 -28 -2 -28 4 0 5 7 10 15 10 8 0 15 7 15
15 0 8 -1 15 -2 14 -2 0 -10 -3 -18 -6z"/>
<path d="M4120 9326 c0 -8 4 -17 9 -20 5 -4 7 3 4 14 -6 23 -13 26 -13 6z"/>
<path d="M3930 9290 c0 -6 7 -10 15 -10 8 0 15 2 15 4 0 2 -7 6 -15 10 -8 3
-15 1 -15 -4z"/>
<path d="M3977 9274 c-8 -8 1 -24 14 -24 5 0 9 7 9 15 0 15 -12 20 -23 9z"/>
<path d="M3920 9231 c-7 -15 -7 -21 0 -21 12 0 25 28 17 36 -3 3 -10 -4 -17
-15z"/>
<path d="M3960 9240 c0 -5 5 -10 11 -10 5 0 7 5 4 10 -3 6 -8 10 -11 10 -2 0
-4 -4 -4 -10z"/>
<path d="M4030 9240 c0 -5 5 -10 10 -10 6 0 10 5 10 10 0 6 -4 10 -10 10 -5 0
-10 -4 -10 -10z"/>
<path d="M3990 9220 c0 -5 5 -10 11 -10 5 0 7 5 4 10 -3 6 -8 10 -11 10 -2 0
-4 -4 -4 -10z"/>
<path d="M3956 9195 c-11 -8 -15 -15 -9 -15 6 0 16 7 23 15 16 19 11 19 -14 0z"/>
<path d="M3955 9171 c-23 -7 -31 -31 -15 -41 7 -4 25 -1 42 7 16 8 28 16 26
17 -2 1 -10 6 -18 12 -8 6 -24 8 -35 5z"/>
<path d="M4120 9150 c0 -11 2 -20 4 -20 2 0 6 9 9 20 3 11 1 20 -4 20 -5 0 -9
-9 -9 -20z"/>
<path d="M4095 9150 c-3 -5 -1 -10 4 -10 6 0 11 5 11 10 0 6 -2 10 -4 10 -3 0
-8 -4 -11 -10z"/>
<path d="M4020 9140 c0 -5 5 -10 10 -10 6 0 10 5 10 10 0 6 -4 10 -10 10 -5 0
-10 -4 -10 -10z"/>
<path d="M3950 9100 c0 -5 5 -10 11 -10 5 0 7 5 4 10 -3 6 -8 10 -11 10 -2 0
-4 -4 -4 -10z"/>
<path d="M3950 9065 c0 -8 2 -15 4 -15 2 0 6 7 10 15 3 8 1 15 -4 15 -6 0 -10
-7 -10 -15z"/>
<path d="M3997 9053 c-3 -16 -1 -35 5 -43 8 -13 9 -12 4 2 -2 9 2 19 10 22 18
7 18 46 0 46 -7 0 -16 -12 -19 -27z"/>
<path d="M4163 8990 c0 -36 2 -50 4 -32 2 17 2 47 0 65 -2 17 -4 3 -4 -33z"/>
<path d="M3975 8980 c-3 -11 -4 -24 0 -30 3 -5 2 -26 -4 -46 -10 -36 -6 -64
10 -64 5 0 9 15 9 33 0 22 3 28 9 18 7 -11 10 -10 14 5 3 13 5 10 6 -9 1 -17
-3 -26 -9 -22 -5 3 -10 1 -10 -4 0 -6 5 -11 11 -11 6 0 10 -34 9 -92 0 -51 1
-112 3 -135 3 -30 1 -43 -8 -43 -7 0 -15 -13 -17 -28 -3 -20 2 -33 18 -44 20
-16 22 -15 42 21 23 40 24 80 3 119 -7 12 -17 20 -23 16 -7 -5 -8 19 -4 77 3
46 5 91 6 99 0 8 0 30 0 48 0 17 -4 32 -10 32 -6 0 -8 15 -4 42 5 30 4 39 -4
34 -7 -4 -12 -16 -12 -26 0 -13 -5 -18 -15 -14 -10 4 -13 13 -10 25 4 11 4 19
1 19 -2 0 -7 -9 -11 -20z"/>
<path d="M4182 8970 c0 -14 2 -19 5 -12 2 6 2 18 0 25 -3 6 -5 1 -5 -13z"/>
<path d="M4066 8963 c-6 -14 -5 -15 5 -6 7 7 10 15 7 18 -3 3 -9 -2 -12 -12z"/>
<path d="M4110 8941 c0 -6 4 -13 10 -16 6 -3 7 1 4 9 -7 18 -14 21 -14 7z"/>
<path d="M4161 8864 c0 -11 3 -14 6 -6 3 7 2 16 -1 19 -3 4 -6 -2 -5 -13z"/>
<path d="M4064 8858 c-3 -4 -3 -8 0 -8 2 0 11 -3 20 -6 10 -4 16 -1 16 8 0 16
-27 20 -36 6z"/>
<path d="M4121 8844 c0 -11 3 -14 6 -6 3 7 2 16 -1 19 -3 4 -6 -2 -5 -13z"/>
<path d="M4072 8788 c-10 -39 -10 -54 2 -80 l13 -33 8 27 c4 14 3 50 -2 80
l-9 53 -12 -47z"/>
<path d="M3970 8760 c0 -19 3 -21 12 -12 9 9 9 15 0 24 -9 9 -12 7 -12 -12z"/>
<path d="M3990 8650 c0 -11 4 -20 9 -20 5 0 7 9 4 20 -3 11 -7 20 -9 20 -2 0
-4 -9 -4 -20z"/>
<path d="M3977 8590 c3 -11 7 -20 9 -20 2 0 4 9 4 20 0 11 -4 20 -9 20 -5 0
-7 -9 -4 -20z"/>
<path d="M3921 8444 c0 -11 3 -14 6 -6 3 7 2 16 -1 19 -3 4 -6 -2 -5 -13z"/>
<path d="M3941 8433 c-7 -14 -7 -23 -1 -23 6 0 10 5 10 11 0 5 4 8 9 5 5 -3
11 2 13 12 7 27 -18 23 -31 -5z"/>
<path d="M3940 8350 c0 -11 5 -20 10 -20 6 0 10 4 10 9 0 5 10 7 23 5 12 -2
15 -1 7 2 -8 4 -23 11 -32 16 -14 7 -18 4 -18 -12z"/>
<path d="M3817 8311 c-4 -19 -5 -36 -2 -39 10 -11 16 7 13 40 l-3 33 -8 -34z"/>
<path d="M3027 8074 c-4 -4 -7 -17 -7 -28 1 -19 1 -20 11 -3 11 19 8 43 -4 31z"/>
<path d="M3238 7972 c-10 -2 -18 -8 -18 -13 0 -13 27 -11 35 2 9 13 4 16 -17
11z"/>
<path d="M3303 7945 c-3 -9 -3 -18 -1 -21 3 -3 8 4 11 16 6 23 -1 27 -10 5z"/>
<path d="M3255 7920 c-16 -7 -17 -9 -3 -9 9 -1 20 4 23 9 7 11 7 11 -20 0z"/>
<path d="M2870 7829 c0 -5 5 -7 10 -4 6 3 10 8 10 11 0 2 -4 4 -10 4 -5 0 -10
-5 -10 -11z"/>
<path d="M3447 7750 c3 -11 7 -20 9 -20 2 0 4 9 4 20 0 11 -4 20 -9 20 -5 0
-7 -9 -4 -20z"/>
<path d="M4107 7750 c17 -18 -5 -49 -104 -144 -184 -177 -418 -310 -570 -323
-55 -5 -63 -8 -64 -27 -1 -15 -2 -17 -6 -4 -7 28 -35 30 -67 6 -27 -20 -45
-23 -143 -26 -80 -3 -135 1 -190 13 -126 27 -266 122 -285 192 -8 28 10 66 41
90 14 11 14 12 1 13 -9 0 -52 -24 -96 -52 -45 -29 -127 -82 -183 -118 -56 -36
-148 -95 -204 -131 -56 -37 -154 -100 -217 -141 -153 -100 -232 -189 -341
-388 -44 -80 -95 -179 -114 -220 -36 -83 -151 -411 -195 -560 -16 -52 -39
-126 -53 -165 -13 -38 -37 -110 -52 -160 -15 -49 -36 -100 -46 -114 -10 -13
-19 -36 -19 -51 0 -15 -11 -49 -26 -75 -14 -26 -23 -54 -20 -62 3 -8 56 -38
118 -67 326 -154 340 -159 533 -196 116 -23 136 -30 89 -31 -16 0 -23 -3 -16
-6 6 -2 9 -9 6 -15 -3 -5 -7 -26 -9 -46 -7 -97 -18 -141 -51 -205 -19 -38 -33
-76 -30 -83 3 -8 1 -14 -4 -14 -6 0 -10 -5 -10 -11 0 -14 -39 -49 -55 -49 -6
0 -20 -8 -31 -17 -47 -43 -155 -79 -185 -62 -15 8 -50 8 -121 0 -5 -1 -8 -5
-8 -10 0 -5 12 -9 28 -9 95 2 112 -2 112 -23 0 -14 5 -19 15 -16 20 8 31 -14
13 -24 -9 -5 -19 -20 -22 -34 -4 -14 -13 -25 -21 -25 -19 0 -19 14 0 34 21 20
19 26 -10 26 -14 0 -25 -4 -25 -10 0 -5 -7 -10 -15 -10 -22 0 -18 -15 8 -28
18 -9 19 -11 4 -11 -10 -1 -35 -11 -56 -23 -42 -24 -60 -60 -62 -124 l-2 -39
-6 35 c-6 30 -8 23 -15 -45 -4 -43 -13 -91 -18 -105 -5 -14 -11 -61 -14 -105
-4 -98 -13 -145 -26 -145 -6 0 -4 -7 3 -17 11 -13 11 -17 2 -20 -7 -3 -12 -19
-12 -36 1 -24 3 -26 6 -9 5 23 18 29 28 12 9 -14 -27 -59 -47 -60 -10 0 -18
-7 -18 -16 0 -8 4 -13 8 -10 4 2 7 -34 6 -82 -1 -51 -7 -88 -13 -90 -14 -5
-15 -42 -1 -42 6 0 10 -11 10 -25 0 -14 5 -25 10 -25 6 0 10 -4 10 -10 0 -5
-3 -9 -7 -7 -10 3 -13 -6 -13 -38 0 -16 6 -25 15 -25 8 0 15 -4 15 -10 0 -5
-7 -10 -15 -10 -8 0 -15 -7 -15 -15 0 -8 5 -15 10 -15 6 0 10 -13 10 -30 0
-16 -4 -30 -10 -30 -5 0 -10 -14 -10 -31 0 -16 4 -28 8 -25 5 3 9 -20 10 -49
1 -52 -3 -60 -30 -56 -13 2 -9 -11 6 -23 8 -6 17 -37 21 -69 6 -54 5 -59 -14
-64 -20 -5 -21 -11 -21 -222 0 -119 -6 -261 -12 -316 -6 -55 -12 -212 -14
-350 -4 -264 -6 -316 -14 -309 -5 6 -29 -93 -29 -121 0 -11 7 -2 15 20 11 33
13 35 10 10 -3 -16 -7 -59 -11 -95 l-6 -65 16 34 c9 19 14 40 11 47 -3 7 2 10
14 7 13 -4 19 -19 24 -61 17 -142 17 -172 1 -188 -8 -8 -15 -27 -15 -42 0 -33
-19 -64 -27 -44 -2 6 -12 12 -22 12 -12 0 -21 -15 -32 -52 l-14 -53 -6 45 c-6
41 -6 42 -7 10 -1 -19 7 -60 19 -90 44 -118 49 -133 49 -157 0 -13 6 -36 14
-51 7 -15 16 -43 20 -62 12 -65 75 -185 107 -204 22 -13 29 -25 30 -49 2 -30
2 -31 6 -4 5 32 4 32 95 7 88 -24 132 -25 221 -3 83 20 103 45 74 95 -23 40
-21 52 8 68 28 15 32 32 10 50 -13 11 -13 14 2 27 10 8 12 12 6 8 -15 -7 -17
4 -4 24 7 11 11 9 21 -8 9 -18 9 -26 -2 -39 -12 -15 -11 -16 5 -3 15 12 21 9
18 -11 0 -5 5 -8 12 -8 8 0 23 -33 37 -82 13 -46 36 -107 52 -137 15 -30 28
-70 28 -89 0 -72 82 -284 119 -307 5 -3 13 -20 16 -38 4 -17 15 -44 23 -59
l16 -28 1584 0 c974 0 1581 4 1577 9 -3 5 -1 12 5 16 14 9 9 75 -6 75 -21 0
-38 39 -23 56 8 10 8 14 0 14 -6 0 -11 9 -11 20 0 11 4 20 10 20 5 0 7 -7 4
-15 -4 -8 -1 -15 6 -15 8 0 10 8 6 23 -3 12 -6 26 -6 31 0 4 -7 6 -15 2 -17
-6 -19 7 -5 35 7 13 7 19 0 19 -5 0 -10 11 -10 25 0 15 -6 25 -14 25 -10 0
-12 7 -8 22 4 17 2 20 -11 15 -10 -4 -17 -2 -17 3 0 6 7 10 15 10 8 0 15 7 15
15 0 8 -4 15 -10 15 -5 0 -10 7 -10 15 0 8 5 15 10 15 6 0 10 5 10 11 0 5 -4
7 -10 4 -8 -5 -13 42 -9 82 0 4 -8 10 -18 14 -17 7 -17 8 1 8 14 1 16 4 7 14
-6 8 -8 17 -4 20 3 4 -2 17 -13 29 -10 12 -13 18 -6 14 14 -9 16 3 2 24 -8 12
-12 13 -19 2 -6 -10 -10 -4 -15 21 -4 19 -13 40 -21 47 -8 7 -12 17 -8 23 4 6
9 3 14 -9 7 -17 8 -17 8 5 1 22 -1 23 -49 18 -39 -4 -50 -2 -50 9 0 17 -26 19
-36 3 -10 -17 -21 6 -19 40 1 24 -2 29 -24 29 -14 0 -27 5 -29 11 -7 22 -19
10 -16 -16 2 -16 1 -20 -2 -10 -6 19 -20 22 -29 7 -4 -6 -11 -7 -17 -4 -7 5
-3 10 10 15 12 5 22 13 22 19 0 6 -4 8 -10 5 -6 -3 -10 3 -10 14 0 15 4 19 18
14 9 -4 20 -11 24 -17 5 -8 8 -8 8 0 0 6 -7 17 -15 24 -8 7 -12 16 -9 21 3 5
-4 9 -15 9 -16 0 -21 6 -21 26 0 19 -4 25 -15 20 -8 -3 -15 0 -15 5 0 6 -9 9
-19 6 -16 -4 -21 2 -27 25 -4 23 -8 27 -15 17 -7 -11 -9 -9 -9 8 0 27 19 40
31 22 7 -12 10 -12 18 -1 6 11 9 9 14 -7 2 -11 2 -21 -3 -23 -4 -2 2 -12 13
-23 19 -19 20 -19 13 -1 -4 12 -2 23 6 28 11 6 10 8 0 8 -7 0 -10 5 -7 10 4 6
15 8 25 5 20 -6 41 20 33 41 -4 11 45 10 74 0 13 -5 7 19 -9 41 -6 7 -3 13 10
17 16 6 20 20 13 55 -1 3 -7 -3 -14 -13 -12 -17 -15 -17 -29 -2 -13 13 -17 13
-21 1 -3 -7 -1 -16 6 -19 9 -3 9 -5 0 -5 -6 -1 -19 6 -27 15 -15 14 -16 14
-17 -3 0 -10 -3 -13 -6 -6 -3 9 -10 10 -22 3 -18 -9 -31 -4 -31 12 0 4 7 8 15
8 9 0 15 6 13 13 -1 6 6 22 17 34 15 18 22 20 34 10 12 -9 13 -9 7 1 -9 15 16
16 31 1 20 -20 31 -1 23 41 -7 37 -5 41 16 46 13 3 31 3 39 0 9 -3 13 -2 10 4
-3 6 -2 10 2 10 5 0 13 10 18 23 8 17 17 21 43 19 33 -3 45 14 17 24 -8 4 -12
11 -9 16 7 10 -51 2 -71 -11 -13 -8 -144 -8 -139 0 2 4 30 10 61 13 66 8 147
32 166 49 6 7 30 22 52 34 22 12 41 28 44 35 2 8 -5 5 -17 -5 -11 -11 -26 -16
-32 -12 -7 4 -26 -6 -43 -23 -24 -23 -51 -35 -105 -47 -78 -18 -102 -16 -52 5
16 7 30 19 30 26 0 8 3 14 8 14 4 0 25 16 47 36 43 38 34 36 -31 -8 -23 -15
-47 -28 -53 -28 -6 0 -11 -4 -11 -8 0 -5 -16 -16 -35 -25 -19 -9 -35 -14 -35
-11 0 16 54 103 67 108 8 3 11 1 8 -4 -3 -6 1 -7 10 -4 10 4 15 17 14 38 -2
17 7 50 19 73 12 23 22 58 22 77 0 29 9 45 50 86 27 28 50 55 50 60 0 6 18 30
40 54 23 24 45 59 50 78 9 30 8 31 -5 14 -8 -11 -15 -25 -15 -32 0 -13 -37
-44 -52 -44 -5 0 -8 7 -8 16 0 8 -4 12 -10 9 -6 -4 -10 5 -10 20 0 15 -4 24
-10 20 -6 -3 -10 0 -10 8 0 7 32 29 70 49 46 24 70 32 70 23 0 -7 7 -15 15
-19 18 -7 19 -2 3 27 -7 12 -14 23 -14 25 -1 2 -31 -11 -66 -27 -80 -38 -98
-39 -98 -6 0 29 16 34 23 7 3 -12 5 -13 6 -2 1 19 85 64 105 57 10 -4 13 -1
10 7 -3 7 2 16 10 19 9 4 16 2 16 -4 0 -6 5 -7 10 -4 6 3 10 22 10 42 0 42 9
38 19 -7 l6 -31 33 27 c32 27 43 66 22 79 -5 3 -10 20 -10 36 0 17 -4 28 -9
24 -6 -3 -8 3 -7 12 6 28 -35 178 -69 258 -19 44 -55 168 -51 173 2 1 27 -23
57 -55 29 -32 50 -50 46 -40 -4 9 -10 25 -13 35 -4 9 14 -3 39 -28 26 -25 46
-49 47 -53 0 -15 29 -38 39 -32 5 3 17 -5 25 -17 16 -22 16 -22 16 -1 0 11 -7
26 -15 33 -8 7 -15 17 -15 22 0 14 -27 38 -43 38 -10 0 -13 7 -10 20 3 11 0
20 -6 20 -6 0 -10 3 -9 8 1 4 -2 17 -6 30 -5 14 -3 29 5 38 9 11 9 18 1 26 -7
7 -12 23 -12 36 0 18 -4 23 -16 18 -13 -5 -15 -2 -11 15 6 21 1 30 -40 75 -12
13 -20 24 -18 24 2 0 -3 24 -11 53 -16 59 -17 77 -6 77 12 0 30 -49 25 -69 -3
-10 0 -22 6 -25 7 -5 11 5 11 28 0 27 3 34 15 30 10 -4 15 0 15 11 0 9 -4 14
-9 11 -5 -4 -12 0 -14 6 -4 10 -8 10 -15 0 -25 -37 -24 171 2 230 19 43 20 51
6 43 -11 -7 -14 8 -3 18 11 12 32 -14 26 -31 -5 -13 -3 -14 6 -6 20 19 9 59
-16 62 -16 2 -23 10 -23 25 0 16 3 18 12 9 14 -14 42 -16 33 -3 -3 5 -1 13 5
16 6 4 8 15 5 26 -7 21 10 27 18 7 3 -7 6 -3 6 10 1 27 8 28 29 3 10 -11 27
-22 38 -25 18 -6 21 -3 17 18 -4 18 0 26 17 31 12 4 27 1 35 -5 10 -8 15 -9
15 -2 0 17 -58 54 -65 42 -3 -5 2 -10 11 -10 14 0 15 -3 7 -11 -7 -7 -19 -9
-29 -5 -9 4 -14 9 -11 12 12 12 -44 52 -66 47 -21 -4 -22 -4 -3 11 17 14 18
16 3 16 -10 0 -17 8 -17 21 0 11 -5 17 -10 14 -6 -3 -10 2 -11 12 0 11 -5 7
-12 -12 -11 -30 -11 -30 -17 -6 -9 39 -30 38 -30 -2 0 -30 -34 -216 -45 -242
-2 -5 -4 17 -3 50 1 107 -3 137 -15 126 -7 -5 -16 -9 -22 -8 -5 1 -11 -8 -13
-21 -5 -31 -22 -17 -22 18 0 16 -4 31 -8 34 -5 3 -6 -8 -4 -25 4 -24 1 -29
-17 -29 -18 0 -21 -4 -16 -30 4 -22 1 -30 -10 -30 -17 0 -22 -65 -5 -75 6 -3
10 -11 10 -17 0 -6 -8 -4 -18 5 -10 10 -23 17 -29 17 -11 0 -23 -54 -23 -108
0 -20 -4 -31 -10 -27 -5 3 -10 24 -10 46 0 24 -4 38 -10 34 -14 -9 -13 21 2
45 10 15 9 22 -5 38 -21 23 -22 43 -2 36 18 -7 19 0 5 27 -6 10 -17 19 -25 19
-8 0 -15 5 -15 10 0 6 -11 16 -25 22 -33 15 -32 26 3 22 15 -2 21 -1 14 2 -8
4 -11 17 -7 37 8 41 -13 71 -51 73 -16 1 -31 3 -33 3 -2 1 2 8 9 16 7 8 10 25
6 39 -4 15 -1 26 7 29 9 3 8 12 -5 35 -10 16 -19 41 -19 54 -1 20 -2 19 -9 -7
l-8 -30 -2 30 c-2 29 -2 29 -9 5 -5 -18 -2 -29 12 -41 16 -13 18 -19 9 -35
-11 -19 -11 -19 -12 1 0 16 -2 17 -8 5 -11 -21 -3 -152 9 -144 5 3 9 -9 9 -25
0 -17 5 -31 10 -31 6 0 10 -17 9 -37 0 -33 -1 -35 -9 -15 -12 30 -15 28 -17
-13 -2 -19 2 -35 7 -35 6 0 10 5 10 10 0 6 5 10 10 10 17 0 11 -27 -7 -34 -15
-6 -15 -8 2 -20 16 -11 16 -13 2 -19 -12 -5 -16 -18 -15 -52 1 -25 6 -45 10
-45 4 0 8 -10 8 -21 0 -17 -3 -19 -14 -10 -12 10 -15 8 -18 -10 -4 -31 -25
-35 -31 -7 -3 14 -5 9 -6 -16 -1 -33 1 -37 14 -26 19 16 34 5 17 -12 -7 -7
-12 -17 -12 -23 0 -5 4 -4 9 4 5 7 14 10 20 7 17 -11 13 -20 -16 -33 -38 -18
-63 -16 -63 5 0 14 2 15 10 2 7 -12 10 -11 16 5 4 10 3 20 -2 22 -6 2 -8 18
-6 37 2 20 -4 51 -17 77 -11 24 -20 38 -21 31 0 -7 -5 -10 -11 -6 -8 4 -8 9 0
17 16 16 14 42 -4 57 -14 12 -14 15 0 36 20 31 19 33 -12 28 -16 -2 -23 -1
-17 3 6 5 10 28 9 52 -2 35 -7 46 -24 53 -15 5 -21 16 -21 35 l0 28 13 -24
c13 -26 37 -40 37 -21 0 6 -4 9 -8 6 -4 -2 -14 16 -21 42 -20 67 -25 72 -33
27 -3 -22 -4 42 -1 143 4 113 2 182 -4 182 -5 0 -10 -8 -10 -17 1 -10 0 -52
-1 -95 -2 -70 -4 -76 -22 -71 -17 5 -18 3 -7 -20 10 -22 13 -24 19 -9 5 12 7
8 7 -13 0 -16 -4 -37 -9 -45 -8 -13 -10 -13 -10 2 0 11 -5 15 -15 12 -20 -8
-19 -38 1 -58 8 -9 14 -26 11 -38 l-4 -23 -12 25 c-11 24 -11 23 -6 -10 3 -18
11 -38 18 -42 8 -5 4 -8 -10 -8 -17 0 -23 6 -23 22 0 41 -8 13 -14 -51 -6 -57
-5 -63 9 -51 13 10 15 9 15 -9 0 -17 -6 -21 -36 -21 -31 0 -35 3 -29 18 4 9
10 26 13 37 5 18 4 18 -11 6 -15 -12 -17 -11 -17 5 0 16 -2 17 -10 4 -6 -9
-10 -10 -10 -3 0 6 5 15 10 18 6 3 11 16 11 28 1 17 3 15 9 -8 7 -28 8 -28 8
-5 1 14 -5 33 -12 43 -13 16 -14 16 -19 -5 -12 -43 -17 -10 -9 52 7 45 5 75
-4 107 -9 30 -10 51 -4 69 12 31 29 24 23 -10 -3 -13 1 -27 8 -31 9 -6 10 -1
5 19 -4 18 -2 26 6 26 10 0 10 2 0 9 -9 5 -14 32 -14 76 -1 40 -4 61 -9 49 -4
-10 -5 15 -2 57 3 42 2 79 -3 82 -5 3 -8 -20 -7 -51 l1 -57 -8 60 c-12 93 -12
167 1 159 6 -3 9 -15 6 -25 -3 -11 -1 -17 4 -13 17 10 10 63 -11 74 -13 7 -20
20 -19 38 l1 27 8 -30 c8 -30 8 -30 9 8 1 34 -5 42 -30 39 -10 -2 2 37 12 44
5 3 9 -5 10 -18 0 -22 1 -22 9 -3 13 30 12 67 -2 59 -7 -4 -8 -3 -4 5 4 6 10
9 14 7 4 -2 15 22 25 53 10 32 28 68 40 82 13 13 29 44 37 68 8 24 16 39 18
32 2 -6 8 -9 13 -5 5 3 9 -3 9 -13 0 -10 4 -25 9 -32 6 -10 8 -1 4 26 -3 24 0
48 6 59 10 16 11 11 7 -26 -3 -25 -1 -52 4 -60 7 -10 10 -11 10 -2 0 6 7 12
16 12 10 0 14 7 12 18 -2 9 -9 16 -14 15 -5 -1 -10 7 -11 17 -1 13 3 17 14 13
12 -5 14 -1 9 15 -7 21 -1 50 27 126 8 22 16 33 19 25 3 -8 8 5 12 28 4 24 13
41 19 40 7 -1 16 13 21 31 6 17 14 32 18 32 4 0 8 9 8 20 0 11 4 20 9 20 5 0
13 9 16 20 10 32 21 16 35 -52 7 -35 32 -100 55 -144 23 -45 50 -103 59 -129
19 -56 42 -85 67 -85 13 0 16 -5 12 -16 -4 -12 -2 -15 8 -12 8 3 13 11 11 17
-1 6 -4 19 -5 29 -5 28 -31 92 -37 92 -3 0 -4 19 -2 41 3 29 1 40 -7 35 -7 -5
-10 0 -9 11 3 23 -30 164 -42 178 -5 6 -9 24 -10 40 -1 54 -3 64 -13 58 -7 -4
-8 8 -4 33 4 21 7 49 7 62 0 12 5 22 10 22 6 0 10 -9 10 -19 0 -11 5 -23 10
-26 6 -3 10 -17 10 -30 0 -13 5 -27 10 -30 6 -3 10 -21 10 -38 l1 -32 13 37
c12 33 30 253 27 324 -2 36 25 43 35 10 7 -20 86 -184 104 -216 5 -8 15 -28
23 -45 42 -91 140 -264 205 -362 42 -63 72 -118 69 -127 -3 -8 2 -16 14 -19
10 -3 23 -16 28 -30 5 -14 15 -28 20 -32 14 -8 14 -35 1 -35 -5 0 -10 6 -10
13 0 17 -44 59 -57 55 -15 -5 -93 82 -93 104 0 21 -9 21 -54 2 -15 -6 -18 -4
-14 8 8 19 -10 38 -34 38 -14 0 -18 -6 -16 -27 2 -19 -2 -28 -14 -31 -12 -2
-18 3 -18 16 0 25 -36 59 -42 40 -4 -11 -8 -10 -21 1 -14 11 -20 11 -32 1 -8
-7 -15 -20 -15 -29 0 -9 -9 -22 -20 -29 -13 -8 -20 -23 -20 -42 0 -25 4 -30
24 -30 14 0 28 5 32 11 4 8 9 7 15 -2 13 -21 11 -24 -21 -36 -28 -11 -43 -43
-19 -43 7 0 8 -11 4 -31 -6 -24 -4 -30 6 -27 8 3 16 17 19 32 l5 27 32 -24 33
-24 -41 -26 c-23 -15 -45 -27 -50 -27 -11 0 -12 8 12 -106 12 -55 24 -110 26
-124 6 -28 31 -60 47 -60 17 0 118 -53 150 -78 16 -12 37 -22 47 -22 9 0 24
-6 31 -13 7 -7 26 -20 41 -30 16 -10 26 -21 24 -24 -3 -3 -12 -1 -19 3 -16 10
-88 14 -88 5 0 -18 34 -52 47 -47 8 3 20 3 26 -1 7 -4 27 -9 45 -10 40 -2 55
23 27 43 -10 8 -14 14 -8 14 14 0 39 -24 53 -51 12 -22 89 -59 123 -59 13 0
41 -11 61 -25 36 -24 81 -33 88 -17 2 4 18 17 35 30 l33 22 37 -61 c21 -34 52
-80 69 -103 68 -92 194 -301 184 -304 -6 -2 -27 9 -47 25 -20 15 -60 46 -89
68 -29 23 -67 54 -85 69 -32 28 -33 29 -98 17 -36 -6 -90 -14 -118 -17 -29 -4
-53 -9 -53 -13 1 -7 31 -28 185 -133 55 -37 130 -89 167 -115 37 -27 94 -67
127 -91 33 -23 62 -42 65 -42 2 0 10 25 16 55 6 30 15 55 20 55 4 0 15 -16 24
-35 9 -19 22 -40 29 -47 14 -15 109 -167 152 -243 81 -144 105 -193 105 -220
0 -28 47 -171 69 -214 14 -25 14 -101 1 -101 -5 0 -10 4 -10 9 0 5 -16 12 -35
15 -19 4 -35 11 -35 17 0 6 -4 7 -10 4 -5 -3 -10 -1 -10 4 0 6 5 11 11 11 6 0
9 6 6 13 -2 6 3 18 12 25 13 10 11 10 -12 2 -30 -10 -47 -6 -47 11 0 6 5 7 10
4 6 -3 10 -1 10 5 0 6 -6 10 -12 8 -7 -1 -26 5 -43 15 -16 9 -23 16 -15 17 13
0 13 2 1 9 -21 14 -43 2 -36 -20 4 -11 2 -19 -5 -19 -6 0 -12 6 -14 13 -6 19
-16 40 -31 67 -11 19 -11 26 -2 33 8 6 6 7 -6 3 -11 -3 -27 2 -39 14 -12 11
-24 17 -27 15 -2 -3 5 -12 17 -21 27 -19 28 -34 3 -34 -32 0 -55 12 -40 21 10
6 10 11 0 22 -10 13 -9 17 6 26 14 8 15 11 3 12 -8 1 -18 1 -22 0 -5 0 -8 4
-8 9 0 6 7 10 15 10 9 0 12 6 9 15 -4 8 -18 15 -33 14 -14 0 -20 -3 -13 -6 20
-8 14 -67 -9 -92 -12 -12 -18 -25 -14 -29 3 -3 10 0 16 8 8 13 10 13 18 1 13
-20 3 -41 -19 -41 -19 0 -37 50 -25 70 4 6 -5 8 -23 4 -17 -4 -32 -1 -36 5 -5
7 2 11 16 12 17 1 18 3 6 6 -10 2 -18 11 -18 19 0 17 5 17 30 2 17 -11 22 -10
30 2 8 13 10 13 10 -2 0 -9 -8 -19 -17 -22 -11 -3 -7 -4 7 -3 21 2 24 6 21 27
-1 13 -12 31 -22 38 -10 7 -19 19 -19 25 0 7 7 3 15 -7 8 -11 18 -17 21 -13
21 21 -55 81 -92 72 -12 -3 -35 2 -50 10 -28 15 -27 15 31 11 33 -2 45 -1 26
1 -22 3 -35 11 -38 24 -4 15 -14 19 -43 19 -21 0 -45 3 -54 6 -11 4 -14 0 -12
-18 1 -13 5 -29 9 -34 3 -6 -4 -16 -18 -22 -18 -8 -25 -8 -29 1 -2 7 -5 2 -5
-10 -1 -13 4 -23 11 -23 6 0 9 -2 6 -5 -7 -8 -61 14 -70 28 -4 6 -2 15 5 19 9
6 9 8 0 8 -16 0 -24 -14 -28 -49 -3 -22 1 -30 16 -34 12 -3 19 0 19 9 0 8 7
14 15 14 12 0 14 -4 7 -16 -14 -25 -3 -52 24 -58 30 -8 54 4 87 43 20 24 26
27 31 15 8 -22 8 -24 -9 -24 -8 0 -12 -6 -9 -14 3 -7 -2 -16 -10 -19 -9 -4
-16 -11 -16 -16 0 -5 10 -4 24 2 13 6 21 17 19 24 -3 7 -1 14 3 14 48 7 51 6
50 -22 -1 -16 -6 -29 -13 -29 -6 0 -15 -5 -18 -10 -4 -7 3 -9 20 -6 29 5 46
-17 26 -37 -8 -8 -11 -6 -11 8 0 20 -10 15 -14 -7 -1 -7 -5 -19 -9 -25 -5 -8
-4 -13 2 -13 6 0 11 5 11 10 0 6 9 10 19 10 11 0 22 6 24 13 3 6 6 1 6 -13 1
-20 3 -22 11 -10 5 8 10 11 10 5 1 -5 3 -25 4 -42 2 -18 -1 -33 -6 -33 -6 0
-5 -7 2 -15 16 -19 47 -19 84 0 15 8 38 15 50 15 18 1 19 2 5 13 -14 11 -13
60 1 57 50 -8 52 -11 45 -64 -5 -45 -4 -49 8 -33 13 16 18 17 48 4 22 -8 29
-16 21 -21 -7 -4 -12 -2 -12 3 0 6 -7 11 -15 11 -8 0 -15 -9 -15 -20 0 -16 7
-20 31 -20 31 0 31 0 15 -25 -21 -31 -20 -35 4 -35 11 0 20 5 20 10 0 6 5 10
10 10 15 0 12 -30 -2 -30 -7 0 -5 -5 5 -11 9 -5 17 -17 17 -26 0 -15 3 -15 50
-1 8 3 11 3 7 0 -4 -2 -3 -10 3 -17 9 -11 7 -12 -9 -8 -11 3 -30 -2 -43 -11
-18 -13 -19 -16 -5 -16 9 0 17 -5 17 -10 0 -6 11 -8 27 -4 l26 7 -19 -25 c-18
-24 -20 -25 -26 -7 -8 20 -38 16 -38 -6 0 -17 23 -25 68 -25 l37 0 -30 -16
c-36 -18 -59 -38 -32 -29 13 6 17 2 17 -19 0 -28 -9 -33 -27 -15 -8 8 -13 8
-17 0 -4 -6 -2 -11 3 -11 6 0 11 -9 11 -20 0 -21 15 -27 25 -9 4 6 13 8 20 5
20 -7 24 3 15 35 -8 25 -6 29 12 29 13 0 18 -5 15 -14 -3 -8 0 -17 7 -19 13
-5 41 -88 39 -114 0 -7 3 -11 7 -8 5 3 11 -3 15 -14 3 -11 31 -43 62 -73 89
-84 123 -120 123 -130 0 -6 -7 -8 -15 -5 -8 4 -17 2 -20 -4 -9 -14 38 -29 48
-15 5 7 15 2 31 -16 13 -14 36 -33 52 -41 39 -20 68 -53 61 -71 -4 -10 5 -16
31 -21 20 -4 39 -10 42 -14 3 -3 18 -11 34 -16 16 -6 32 -17 34 -25 4 -13 3
-13 -10 -2 -10 8 -18 9 -22 3 -7 -11 28 -34 37 -25 2 3 22 -2 42 -10 38 -16
79 -22 105 -15 8 2 14 -2 15 -10 0 -20 25 -26 25 -7 0 19 7 20 25 4 36 -32 45
-38 64 -38 11 0 22 4 25 9 3 5 17 12 31 15 30 8 58 -14 49 -38 -5 -12 1 -16
22 -16 16 0 38 -7 48 -15 25 -19 42 -19 23 -1 -8 8 -12 25 -10 38 4 21 22 37
99 89 53 35 85 71 84 92 -4 40 0 44 43 57 23 7 36 15 30 17 -7 3 -13 11 -13
19 0 8 -9 14 -19 14 -33 0 -35 20 -5 53 29 31 29 31 -16 -4 -84 -66 -164 -105
-130 -64 11 13 10 14 -4 9 -18 -7 -22 11 -5 22 8 4 7 9 -2 15 -11 7 -10 9 3 9
9 0 19 9 23 20 6 18 61 65 78 65 4 0 7 5 7 10 0 6 -3 10 -7 10 -36 1 -45 51
-10 58 l22 4 -22 8 c-13 4 -21 11 -18 15 8 13 -10 20 -50 22 -19 1 -35 5 -35
10 0 5 -5 6 -11 3 -7 -5 -9 13 -5 57 l5 63 -10 -50 c-22 -111 -73 -277 -91
-300 -24 -31 -40 -32 -35 -2 11 58 20 87 29 87 5 0 6 6 1 12 -9 16 -4 69 9 85
5 7 7 17 3 23 -10 16 6 150 17 144 17 -11 -3 40 -21 53 -9 7 -11 13 -6 14 6 1
-3 4 -20 8 -16 4 -29 12 -28 18 3 16 -27 40 -88 71 -30 15 -53 33 -51 40 1 7
-8 17 -21 23 -12 6 -27 20 -32 31 -6 12 -19 26 -29 32 -21 12 -26 15 -68 47
-22 16 -26 24 -19 42 7 17 2 30 -19 56 -28 33 -28 33 -92 26 -34 -4 -79 -9
-98 -10 -19 -2 -70 -6 -113 -10 l-78 -8 27 46 c30 49 73 78 142 96 23 7 42 16
42 21 0 5 12 16 27 24 l27 14 -39 11 c-22 6 -47 11 -55 11 -13 0 -13 1 0 11 9
6 44 7 89 3 68 -5 126 -22 248 -68 44 -16 73 -13 73 9 0 28 -20 65 -35 65 -9
0 -14 4 -11 9 4 5 -2 7 -12 4 -10 -2 -34 0 -53 6 -33 10 -33 10 11 5 37 -4 42
-3 26 7 -11 7 -36 9 -63 5 l-45 -6 23 20 24 21 -57 -7 c-39 -4 -58 -3 -58 5 0
5 7 8 15 5 8 -4 15 -2 15 3 0 5 -20 17 -44 27 -30 12 -43 23 -39 32 3 8 0 21
-7 29 -10 12 -10 15 1 15 8 0 5 6 -7 14 -10 8 -16 18 -11 22 4 4 7 2 7 -4 0
-7 5 -12 11 -12 5 0 7 5 4 10 -3 5 0 10 7 10 29 -1 134 -27 158 -39 23 -12 24
-12 9 3 -19 20 -76 36 -239 66 -103 20 -123 21 -131 9 -7 -12 -9 -12 -9 1 0
13 -1 13 -10 0 -8 -12 -10 -12 -10 -1 0 10 -6 10 -26 -4 -15 -9 -24 -13 -20
-7 3 5 -5 13 -19 16 -22 6 -25 12 -25 51 0 34 -5 47 -21 55 -11 6 -18 17 -16
23 2 7 -4 36 -14 66 -10 29 -16 57 -13 62 3 5 -2 9 -10 9 -9 0 -16 5 -16 10 0
6 6 10 14 10 21 0 8 37 -15 43 -16 4 -18 11 -13 33 6 23 4 26 -11 20 -14 -5
-16 -2 -12 14 3 11 2 20 -3 20 -4 0 -10 9 -13 20 -3 11 0 20 6 20 8 0 9 3 1 8
-5 4 -16 23 -24 42 -7 19 -22 45 -32 56 -11 12 -18 28 -17 35 1 8 -3 27 -9 42
-7 16 -12 34 -12 41 0 6 -5 17 -12 24 -9 9 -9 12 1 12 9 0 8 5 -3 16 -9 8 -14
20 -11 25 4 5 2 9 -4 9 -6 0 -14 12 -17 28 -4 15 -12 30 -18 35 -8 5 -6 10 4
17 13 8 13 10 -1 10 -20 0 -33 27 -16 33 8 3 5 11 -9 23 -12 11 -25 35 -29 54
-4 19 -12 41 -19 49 -8 11 -8 15 3 19 9 3 2 10 -18 18 -28 12 -30 15 -21 39
14 36 13 37 -10 30 -14 -4 -20 -2 -20 9 0 8 -9 31 -20 51 -11 20 -20 42 -20
50 0 8 -6 15 -14 15 -8 0 -17 14 -21 33 -4 17 -17 46 -29 62 -28 38 -50 91
-42 103 8 13 -20 35 -34 27 -16 -10 -12 12 6 29 14 15 14 16 0 16 -15 0 -20
14 -19 48 1 6 -9 12 -21 13 -11 0 -15 3 -9 6 16 6 -8 33 -29 33 -10 0 -10 2 1
9 10 6 10 10 1 16 -9 6 -9 10 1 16 11 7 9 9 -6 9 -15 0 -17 2 -6 9 11 7 10 12
-8 22 -11 8 -21 20 -21 27 0 8 -6 12 -13 9 -8 -3 -14 4 -15 16 -1 17 1 19 8 7
5 -8 10 -11 10 -6 0 5 -8 18 -17 28 -12 14 -14 21 -5 30 8 8 7 15 -4 25 -8 8
-14 24 -14 35 0 16 -5 19 -25 16 -14 -3 -25 -1 -25 3 0 5 10 9 21 9 18 0 19 3
9 15 -6 8 -9 18 -6 23 3 5 -6 22 -19 36 -30 32 -31 37 -7 29 13 -5 12 -1 -5
15 -22 22 -43 79 -43 120 0 12 -5 22 -12 22 -6 0 -26 11 -44 25 -24 18 -31 31
-28 47 2 13 2 17 -2 10 -9 -19 -24 -4 -24 24 0 23 -3 25 -37 23 -44 -3 -73
-15 -73 -31 0 -7 13 -9 34 -5 30 5 33 3 30 -19 -1 -13 2 -26 7 -30 14 -8 0
-24 -22 -24 -10 0 -19 -5 -19 -11 0 -5 4 -8 8 -5 4 2 14 1 22 -5 12 -7 11 -9
-5 -9 -17 0 -17 -2 -5 -10 12 -8 11 -10 -6 -10 -11 0 -36 -7 -54 -17 -31 -15
-32 -17 -15 -30 14 -10 16 -16 7 -25 -8 -8 -15 -8 -27 2 -13 10 -15 9 -15 -9
0 -12 6 -21 14 -21 25 0 23 -43 -3 -68 -13 -12 -25 -32 -27 -45 -1 -12 -3 -24
-3 -26 -1 -2 -7 1 -13 6 -7 5 -23 10 -34 11 -19 0 -23 -7 -29 -51 -9 -66 -11
-129 -5 -192 l5 -50 -33 -1 c-40 -1 -52 19 -27 46 17 19 17 20 -18 35 -20 8
-41 15 -46 15 -5 0 -12 6 -15 13 -4 6 -4 2 -2 -11 4 -19 2 -21 -10 -11 -8 6
-14 18 -14 25 0 13 -21 40 -77 101 -27 29 -30 45 -5 36 15 -6 15 -5 3 10 -7 9
-20 17 -27 17 -8 0 -16 11 -20 25 -3 14 -11 22 -16 19 -6 -4 -7 2 -3 16 5 16
4 20 -5 15 -7 -4 -10 -2 -8 7 2 8 -12 32 -29 54 -18 23 -30 44 -28 48 3 3 2 4
-1 1 -9 -6 -44 60 -44 84 0 10 -9 29 -19 43 -13 16 -19 37 -17 61 3 29 0 35
-9 27 -9 -7 -16 -5 -26 6 -8 10 -13 19 -11 21 1 1 2 6 1 11 -7 44 33 117 91
165 84 71 328 207 371 207 6 0 23 7 37 15 69 37 211 65 266 51 17 -4 33 -19
43 -41 12 -24 19 -31 25 -23 13 21 9 43 -12 66 -17 18 -32 22 -84 22 -62 0
-64 1 -58 23 5 18 7 19 10 5 6 -29 17 -21 17 12 0 24 -3 29 -17 24 -14 -4 -18
0 -18 18 0 19 -2 20 -10 8 -8 -12 -10 -8 -9 15 0 17 -2 41 -6 55 l-7 25 21
-25 c22 -27 28 -21 11 11 -10 18 -4 24 22 20 4 0 10 8 13 19 4 11 11 20 16 20
6 0 6 7 0 18 -6 9 -13 31 -17 47 -6 24 -8 26 -11 10 -2 -11 -7 -27 -11 -35 -6
-16 -9 -27 -11 -47 0 -6 -9 -11 -18 -11 -10 0 -25 -1 -33 -3 -10 -3 -14 2 -13
16 6 48 6 71 -1 90 -6 16 -6 17 3 5 17 -24 14 36 -5 100 -21 72 -33 50 -36
-69 -1 -51 -6 -95 -10 -97 -4 -3 -8 -22 -9 -42 0 -33 -1 -35 -10 -13 -5 13 -9
35 -8 50 1 14 -1 33 -5 42 -4 10 -1 23 8 32 8 8 12 17 9 21 -3 3 -8 21 -10 38
-2 24 0 29 7 18 8 -12 10 -12 10 5 0 11 -5 27 -10 35 -7 11 -10 11 -10 2 0 -7
-8 -22 -19 -33 -19 -21 -36 -72 -31 -98 1 -13 0 -13 -16 0 -16 13 -17 12 -11
-4 4 -10 2 -28 -5 -40 -7 -12 -11 -27 -10 -34 1 -6 -3 -15 -9 -19 -12 -7 -11
8 6 101 2 11 4 30 4 43 1 14 5 21 12 16 8 -5 8 -1 0 13 -6 12 -6 24 -1 29 21
21 29 289 9 309 -5 5 -9 17 -9 27 0 9 -9 22 -20 28 -11 6 -23 22 -26 35 -3 14
-10 25 -15 25 -5 0 -4 -12 1 -26 13 -32 13 -44 0 -44 -5 0 -10 7 -10 15 0 8
-4 15 -9 15 -12 0 -7 -83 8 -139 7 -23 10 -45 8 -48 -3 -2 -8 10 -12 27 -6 25
-9 29 -21 19 -7 -6 -12 -15 -9 -19 3 -5 1 -11 -5 -15 -6 -4 -10 5 -10 19 0 16
6 26 15 26 17 0 17 5 6 35 -5 11 -5 25 -1 30 5 6 2 18 -5 28 -12 17 -14 15
-25 -18 -10 -30 -15 -35 -33 -29 -18 6 -20 4 -10 -7 9 -11 8 -18 -1 -32 -34
-46 -34 -1 -1 59 14 25 20 43 13 39 -7 -4 -5 0 5 8 10 8 17 19 16 23 -1 5 -1
11 0 14 8 19 10 75 4 79 -10 8 -33 72 -33 93 0 9 -7 21 -15 28 -13 10 -15 9
-15 -8 0 -12 -4 -24 -10 -27 -13 -8 -13 38 0 51 6 6 6 15 0 24 -8 13 -10 12
-10 -2 0 -10 -4 -18 -9 -18 -15 0 -23 18 -11 25 5 3 9 18 9 33 -2 24 -2 24 -6
5 -3 -16 -12 -23 -27 -23 -20 0 -22 5 -23 56 0 34 -6 59 -13 64 -7 4 -10 12
-6 18 3 5 -1 12 -9 16 -8 3 -15 11 -15 18 0 9 3 9 11 -2 19 -28 -2 53 -23 88
-21 34 -37 38 -19 4 11 -21 4 -65 -10 -56 -5 3 -9 -32 -10 -78 -1 -71 -2 -78
-11 -48 -5 19 -9 62 -9 94 1 37 -5 69 -14 83 -18 27 -9 31 11 6 13 -17 13 -17
14 3 0 11 -6 26 -12 33 -11 11 -10 13 5 8 23 -9 22 -2 -8 28 -29 29 -47 34
-22 7 13 -14 14 -21 5 -30 -7 -7 -17 -12 -24 -12 -6 0 -27 -13 -45 -30 -19
-16 -38 -30 -43 -30 -5 0 1 8 12 19 12 10 18 22 14 26 -4 5 -1 5 6 1 7 -4 12
-1 12 8 0 9 7 16 15 16 9 0 12 6 9 15 -4 8 -1 15 5 15 6 0 11 -5 11 -12 0 -6
3 -8 6 -5 4 4 2 13 -4 20 -7 8 -8 18 -4 23 4 5 -2 1 -14 -9 -28 -23 -60 -22
-67 3 -3 11 -11 20 -19 20 -10 0 -9 -3 2 -10 10 -7 11 -10 2 -10 -7 0 -17 10
-23 23 -6 13 -25 30 -43 38 -29 14 -33 13 -53 -6 -31 -30 -50 -73 -62 -140 -6
-33 -13 -71 -15 -85 -3 -14 -3 8 0 48 6 84 25 156 49 182 16 18 14 19 -61 19
-113 1 -114 1 -114 10 0 5 15 13 33 19 l32 10 -47 1 c-25 1 -68 6 -95 11 -133
28 -404 80 -410 79 -20 -3 -33 2 -30 13 1 6 -7 14 -18 16 -16 3 -17 1 -8 -8z
m66 -65 c-3 -8 -9 -15 -15 -15 -5 0 -6 -4 -3 -10 3 -5 2 -10 -3 -10 -6 0 -13
-11 -16 -25 -4 -14 -11 -25 -17 -25 -6 0 -7 -4 -4 -10 3 -5 -1 -10 -9 -10 -8
0 -17 -8 -19 -17 -3 -10 -4 -2 -4 17 1 22 10 44 24 58 13 13 31 34 39 48 17
25 37 24 27 -1z m-61 -17 c-7 -7 -12 -8 -12 -2 0 14 12 26 19 19 2 -3 -1 -11
-7 -17z m215 -14 c2 -6 -3 -11 -12 -11 -8 0 -15 7 -15 15 0 15 22 12 27 -4z
m-246 -17 c-10 -9 -11 -8 -5 6 3 10 9 15 12 12 3 -3 0 -11 -7 -18z m114 3 c3
-5 1 -10 -4 -10 -6 0 -11 5 -11 10 0 6 2 10 4 10 3 0 8 -4 11 -10z m390 -9 c3
-5 2 -12 -3 -15 -5 -3 -9 1 -9 9 0 17 3 19 12 6z m-245 -10 c0 -5 -6 -16 -13
-23 -7 -7 -15 -17 -16 -23 -4 -17 -11 -19 -11 -4 0 30 13 59 26 59 8 0 14 -4
14 -9z m-115 -9 c-5 -4 -10 -11 -11 -17 -3 -56 -21 -120 -41 -152 -19 -30 -23
-33 -19 -13 10 40 24 112 31 153 5 30 10 37 28 37 12 0 18 -4 12 -8z m-148
-78 c-3 -3 -12 -4 -19 -1 -8 3 -5 6 6 6 11 1 17 -2 13 -5z m-52 -32 c-3 -3
-11 0 -18 7 -9 10 -8 11 6 5 10 -3 15 -9 12 -12z m1042 -127 c-10 -59 -49
-175 -59 -175 -6 0 -8 -6 -5 -14 3 -7 -6 -35 -19 -62 -25 -50 -25 -40 1 56 8
30 15 66 15 80 0 14 12 48 25 75 14 28 25 56 25 63 0 6 5 12 11 12 8 0 10 -12
6 -35z m100 -57 c-3 -8 -6 -5 -6 6 -1 11 2 17 5 13 3 -3 4 -12 1 -19z m-400
-35 c-3 -10 -5 -4 -5 12 0 17 2 24 5 18 2 -7 2 -21 0 -30z m420 -25 c2 -30 1
-31 -7 -10 -6 13 -8 28 -4 33 8 14 10 11 11 -23z m30 -40 c-3 -8 -6 -5 -6 6
-1 11 2 17 5 13 3 -3 4 -12 1 -19z m-1867 -36 c28 -23 20 -59 -15 -68 -44 -11
-74 29 -49 64 18 27 35 28 64 4z m1897 -48 c-3 -3 -12 -4 -19 -1 -8 3 -5 6 6
6 11 1 17 -2 13 -5z m89 -91 c-10 -10 -19 5 -10 18 6 11 8 11 12 0 2 -7 1 -15
-2 -18z m-2002 -119 c10 -4 16 -18 16 -35 0 -57 -80 -65 -88 -10 -6 40 29 62
72 45z m2091 -276 c-4 -73 -3 -71 -22 -53 -13 13 -14 18 -3 25 7 4 10 12 7 16
-5 9 9 54 17 54 2 0 3 -19 1 -42z m-142 12 c-3 -11 -7 -20 -9 -20 -2 0 -4 9
-4 20 0 11 4 20 9 20 5 0 7 -9 4 -20z m110 0 c-3 -11 -7 -20 -9 -20 -2 0 -4 9
-4 20 0 11 4 20 9 20 5 0 7 -9 4 -20z m-2052 -82 c24 -44 -49 -92 -81 -54 -18
22 -8 59 19 72 28 14 48 9 62 -18z m2084 -28 c3 -5 1 -10 -4 -10 -6 0 -11 5
-11 10 0 6 2 10 4 10 3 0 8 -4 11 -10z m255 -320 c0 -5 -2 -10 -4 -10 -3 0 -8
5 -11 10 -3 6 -1 10 4 10 6 0 11 -4 11 -10z m-570 -680 c0 -5 -2 -10 -4 -10
-3 0 -8 5 -11 10 -3 6 -1 10 4 10 6 0 11 -4 11 -10z m777 -196 c-3 -3 -12 -4
-19 -1 -8 3 -5 6 6 6 11 1 17 -2 13 -5z m113 -129 c11 -13 10 -14 -4 -9 -9 3
-16 10 -16 15 0 13 6 11 20 -6z m-1129 -86 c-9 -22 -10 -22 -10 -3 -1 11 2 24
6 27 12 12 14 0 4 -24z m96 -61 c-3 -8 -6 -5 -6 6 -1 11 2 17 5 13 3 -3 4 -12
1 -19z m-60 -30 c-3 -8 -6 -5 -6 6 -1 11 2 17 5 13 3 -3 4 -12 1 -19z m20 -30
c-3 -8 -6 -5 -6 6 -1 11 2 17 5 13 3 -3 4 -12 1 -19z m328 -248 c4 -6 -5 -10
-19 -10 -14 0 -26 5 -26 10 0 6 9 10 19 10 11 0 23 -4 26 -10z m922 -12 c-3
-8 -6 -5 -6 6 -1 11 2 17 5 13 3 -3 4 -12 1 -19z m-873 -4 c4 -9 4 -19 2 -21
-8 -8 -26 8 -26 23 0 19 16 18 24 -2z m88 -47 c14 -2 68 -51 68 -63 0 -2 -7
-4 -15 -4 -8 0 -15 -7 -15 -15 0 -13 -4 -14 -21 -5 -16 9 -19 17 -14 40 6 27
4 29 -26 32 -18 2 -35 9 -37 17 -4 11 1 12 19 7 13 -4 31 -8 41 -9z m-64 -53
c22 -15 21 -39 -2 -31 -46 17 -56 18 -50 3 3 -9 16 -16 28 -16 29 0 52 -15 37
-24 -21 -13 -76 14 -98 49 l-22 35 42 0 c24 0 53 -7 65 -16z m227 -14 c-3 -5
-10 -10 -16 -10 -5 0 -9 5 -9 10 0 6 7 10 16 10 8 0 12 -4 9 -10z m-35 -73 c0
-5 7 -7 14 -4 9 4 13 1 11 -6 -2 -7 10 -21 28 -32 36 -23 44 -52 12 -47 -11 2
-21 8 -23 13 -6 16 -19 10 -30 -16 -14 -30 3 -45 22 -19 12 16 13 15 18 -9 5
-25 2 -27 -26 -27 -25 0 -39 10 -71 50 -39 48 -63 64 -51 35 3 -9 0 -15 -8
-15 -8 0 -13 15 -14 40 -1 22 1 40 4 40 4 0 22 -9 40 -21 19 -11 41 -19 49
-17 13 2 11 10 -10 40 -33 48 -32 53 5 26 17 -12 30 -26 30 -31z m-140 7 c0
-8 -4 -14 -10 -14 -5 0 -10 9 -10 21 0 11 5 17 10 14 6 -3 10 -13 10 -21z
m-121 -43 c9 -6 10 -11 2 -15 -13 -8 -31 1 -31 15 0 11 11 11 29 0z m499 -156
c-3 -3 -9 2 -12 12 -6 14 -5 15 5 6 7 -7 10 -15 7 -18z m-1361 -17 c-3 -8 -6
-5 -6 6 -1 11 2 17 5 13 3 -3 4 -12 1 -19z m-37 -28 c0 -5 -5 -10 -11 -10 -5
0 -7 5 -4 10 3 6 8 10 11 10 2 0 4 -4 4 -10z m70 -12 c0 -17 -2 -18 -15 -4 -8
8 -15 16 -15 19 0 2 7 4 15 4 8 0 15 -9 15 -19z m-2960 -3 c-7 -8 -16 -15 -21
-15 -5 0 -9 7 -9 15 0 9 9 15 21 15 18 0 19 -2 9 -15z m4304 -11 c6 -10 14
-21 17 -24 3 -3 8 -13 12 -22 11 -30 -18 -21 -32 10 -8 15 -18 35 -23 46 -13
25 12 17 26 -10z m-1467 -16 c-3 -8 -6 -5 -6 6 -1 11 2 17 5 13 3 -3 4 -12 1
-19z m30 -10 c-3 -8 -6 -5 -6 6 -1 11 2 17 5 13 3 -3 4 -12 1 -19z m68 11 c11
-17 -1 -21 -15 -4 -8 9 -8 15 -2 15 6 0 14 -5 17 -11z m32 -91 c-3 -7 -5 -2
-5 12 0 14 2 19 5 13 2 -7 2 -19 0 -25z m-3 -91 l-6 -31 -15 28 c-15 29 -9 51
7 26 9 -13 10 -13 10 0 -1 8 -7 24 -15 34 -8 11 -15 27 -15 35 0 9 9 -2 21
-23 14 -27 18 -47 13 -69z m-47 6 c-3 -10 -5 -2 -5 17 0 19 2 27 5 18 2 -10 2
-26 0 -35z m1461 2 c1 -19 -3 -35 -8 -35 -6 0 -10 18 -10 41 0 49 16 44 18 -6z
m-1508 -29 c0 -3 -4 -8 -10 -11 -5 -3 -10 -1 -10 4 0 6 5 11 10 11 6 0 10 -2
10 -4z m70 -16 c0 -11 -2 -20 -4 -20 -2 0 -6 9 -9 20 -3 11 -1 20 4 20 5 0 9
-9 9 -20z m-56 -89 c-2 -2 -4 1 -4 8 0 7 -4 10 -8 7 -4 -2 -6 12 -3 32 l5 37
7 -40 c4 -22 5 -42 3 -44z m86 48 c0 -10 -4 -19 -10 -19 -5 0 -10 12 -10 26 0
14 4 23 10 19 6 -3 10 -15 10 -26z m1415 11 c3 -6 -1 -7 -9 -4 -18 7 -21 14
-7 14 6 0 13 -4 16 -10z m-1398 -32 c-3 -8 -6 -5 -6 6 -1 11 2 17 5 13 3 -3 4
-12 1 -19z m-27 -49 c0 -10 -4 -19 -10 -19 -5 0 -10 4 -10 9 0 5 -3 17 -6 25
-5 12 -2 15 10 10 9 -3 16 -15 16 -25z m-43 -51 c-2 -13 -4 -3 -4 22 0 25 2
35 4 23 2 -13 2 -33 0 -45z m43 -63 c0 -8 -4 -15 -10 -15 -5 0 -7 7 -4 15 4 8
8 15 10 15 2 0 4 -7 4 -15z m21 -16 c-5 -13 -10 -19 -10 -12 -1 15 10 45 15
40 3 -2 0 -15 -5 -28z m-2398 -319 c-1 -78 -7 -99 -48 -165 -42 -69 -56 -108
-65 -188 -5 -43 -12 -83 -17 -89 -4 -7 -10 -60 -14 -118 -4 -58 -14 -139 -23
-180 -17 -75 -29 -179 -46 -365 -5 -58 -18 -127 -31 -165 -18 -50 -24 -91 -26
-175 -2 -60 -7 -144 -13 -187 -8 -62 -7 -82 5 -105 15 -29 21 -93 8 -93 -8 0
-37 66 -81 185 -24 64 -26 83 -26 215 0 178 1 183 144 785 33 138 67 291 77
340 17 83 20 90 41 87 16 -2 20 1 16 11 -3 10 2 18 16 22 12 4 19 9 16 12 -3
3 -19 1 -35 -5 -17 -6 -31 -9 -31 -6 0 2 7 46 15 97 12 76 43 326 45 362 1 6
17 -37 37 -95 29 -85 36 -119 36 -180z m2554 258 c-3 -8 -6 -5 -6 6 -1 11 2
17 5 13 3 -3 4 -12 1 -19z m-180 -20 c-3 -8 -6 -5 -6 6 -1 11 2 17 5 13 3 -3
4 -12 1 -19z m453 -9 c0 -11 5 -17 10 -14 6 3 10 -4 10 -16 0 -17 -3 -19 -14
-10 -16 13 -27 61 -15 61 5 0 9 -9 9 -21z m-290 -109 c0 -5 -4 -10 -10 -10 -5
0 -10 5 -10 10 0 6 5 10 10 10 6 0 10 -4 10 -10z m70 -45 c0 -5 -5 -3 -10 5
-5 8 -10 20 -10 25 0 6 5 3 10 -5 5 -8 10 -19 10 -25z m300 7 c0 -4 -9 -8 -20
-8 -11 0 -20 4 -20 8 0 4 9 8 20 8 11 0 20 -4 20 -8z m-74 -39 c-10 -10 -19 5
-10 18 6 11 8 11 12 0 2 -7 1 -15 -2 -18z m-376 -9 c0 -8 -4 -12 -10 -9 -5 3
-10 10 -10 16 0 5 5 9 10 9 6 0 10 -7 10 -16z m40 1 c0 -8 -4 -15 -9 -15 -13
0 -22 16 -14 24 11 11 23 6 23 -9z m737 -17 c-3 -7 -5 -2 -5 12 0 14 2 19 5
13 2 -7 2 -19 0 -25z m-192 2 c3 -5 1 -10 -4 -10 -6 0 -11 5 -11 10 0 6 2 10
4 10 3 0 8 -4 11 -10z m-580 -28 c-3 -3 -11 0 -18 7 -9 10 -8 11 6 5 10 -3 15
-9 12 -12z m35 -32 c0 -5 -2 -10 -4 -10 -3 0 -8 5 -11 10 -3 6 -1 10 4 10 6 0
11 -4 11 -10z m610 6 c0 -3 -4 -8 -10 -11 -5 -3 -10 -1 -10 4 0 6 5 11 10 11
6 0 10 -2 10 -4z m12 -28 c-7 -7 -12 -8 -12 -2 0 14 12 26 19 19 2 -3 -1 -11
-7 -17z m72 -44 c-15 -27 -16 -28 -10 -4 3 14 6 34 6 45 1 18 2 18 10 4 7 -12
5 -26 -6 -45z m1483 14 c-3 -8 -6 -5 -6 6 -1 11 2 17 5 13 3 -3 4 -12 1 -19z
m-1990 -40 c-3 -8 -6 -5 -6 6 -1 11 2 17 5 13 3 -3 4 -12 1 -19z m2070 -20
c-3 -7 -5 -2 -5 12 0 14 2 19 5 13 2 -7 2 -19 0 -25z m-1777 -15 c0 -5 -11 -9
-25 -9 -14 -1 -25 2 -25 7 0 5 11 9 25 9 14 0 25 -3 25 -7z m-314 -59 c-9 -8
-20 -12 -26 -9 -15 9 -2 25 21 25 19 0 19 -1 5 -16z m2349 -24 c15 -1 13 -4
-10 -14 -28 -12 -28 -13 -8 -18 13 -3 23 -15 25 -29 1 -13 14 -29 26 -35 16
-8 20 -14 12 -19 -6 -4 -17 -2 -23 4 -20 20 -39 13 -19 -7 9 -10 22 -17 28
-15 7 3 15 0 19 -6 11 -19 -31 -12 -59 10 -14 11 -35 40 -46 64 -11 24 -24 47
-30 50 -24 15 -8 27 28 21 20 -3 46 -6 57 -6z m-2255 -17 c0 -7 -7 -13 -15
-13 -8 0 -15 6 -15 13 0 8 7 14 15 14 8 0 15 -6 15 -14z m53 -27 c9 -7 17 -19
17 -27 -1 -10 -4 -9 -11 4 -5 9 -19 17 -30 17 -11 0 -17 5 -14 10 8 13 16 12
38 -4z m107 -6 c0 -5 -2 -10 -4 -10 -3 0 -8 5 -11 10 -3 6 -1 10 4 10 6 0 11
-4 11 -10z m-190 -20 c0 -5 -2 -10 -4 -10 -3 0 -8 5 -11 10 -3 6 -1 10 4 10 6
0 11 -4 11 -10z m70 6 c0 -3 -4 -8 -10 -11 -5 -3 -10 -1 -10 4 0 6 5 11 10 11
6 0 10 -2 10 -4z m2270 -18 c0 -6 -6 -5 -15 2 -8 7 -15 14 -15 16 0 2 7 1 15
-2 8 -4 15 -11 15 -16z m-2449 -59 c5 -11 20 -19 34 -19 26 0 41 -15 25 -25
-6 -4 -7 -12 -3 -18 3 -7 -3 -4 -14 6 -11 9 -24 17 -30 17 -16 0 -65 49 -58
60 8 13 34 1 46 -21z m222 17 c3 -8 -1 -22 -9 -33 -14 -17 -14 -16 -4 5 7 15
7 22 0 22 -5 0 -10 5 -10 10 0 15 17 12 23 -4z m2272 -26 c3 -5 -1 -10 -9 -10
-8 0 -18 5 -21 10 -3 6 1 10 9 10 8 0 18 -4 21 -10z m-1048 -26 c-3 -3 -12 -4
-19 -1 -8 3 -5 6 6 6 11 1 17 -2 13 -5z m1160 0 c-3 -3 -12 -4 -19 -1 -8 3 -5
6 6 6 11 1 17 -2 13 -5z m-2493 -46 c14 -20 21 -18 17 5 -1 10 17 9 23 -2 3
-5 -1 -14 -9 -21 -12 -10 -20 -7 -46 14 -19 16 -25 26 -15 26 8 0 22 -10 30
-22z m1286 -13 c0 -2 -10 -10 -22 -16 -21 -11 -22 -11 -9 4 13 16 31 23 31 12z
m-1324 -20 c14 -13 14 -15 -2 -15 -14 0 -14 -3 5 -19 27 -24 14 -35 -20 -16
-13 8 -32 18 -41 21 -21 7 -22 16 -6 32 16 16 46 15 64 -3z m1439 6 c3 -5 1
-12 -5 -16 -5 -3 -10 1 -10 9 0 18 6 21 15 7z m1210 -27 c13 -5 14 -8 3 -15
-19 -12 -25 -11 -32 6 -6 16 3 19 29 9z m-2073 -99 c15 -19 8 -25 -14 -13 -24
14 -38 28 -38 41 0 9 42 -14 52 -28z m-4074 -92 c-4 -26 -5 -25 -12 9 -5 21
-5 46 0 55 6 15 8 13 12 -9 2 -16 2 -40 0 -55z m5374 -205 c-11 -11 -32 -3
-32 12 0 4 9 6 21 3 13 -4 17 -9 11 -15z m777 -160 c14 -24 14 -30 -2 -60
l-18 -33 5 32 c6 34 -7 50 -36 45 -18 -3 -26 27 -11 42 14 14 48 0 62 -26z
m21 -233 c1 6 8 -15 15 -45 17 -69 13 -89 -20 -82 -27 5 -52 29 -41 39 4 4 12
1 17 -7 8 -11 9 -9 4 10 -16 65 -17 89 -4 103 12 13 15 12 21 -7 3 -11 7 -16
8 -11z m-113 -307 c-6 -4 -14 -3 -15 2 -2 6 -7 8 -12 5 -4 -3 -8 10 -7 29 l1
35 23 -32 c17 -23 20 -33 10 -39z m350 -214 c-3 -3 -12 -4 -19 -1 -8 3 -5 6 6
6 11 1 17 -2 13 -5z m-5838 -112 c0 -30 -2 -33 -9 -17 -12 28 -12 67 0 60 6
-3 10 -23 9 -43z m3084 -231 c-3 -12 2 -20 16 -24 12 -3 21 -11 20 -19 0 -10
-2 -10 -6 0 -2 6 -13 12 -24 12 -19 0 -27 29 -12 43 10 11 11 8 6 -12z m-30
-8 c-7 -2 -19 -2 -25 0 -7 3 -2 5 12 5 14 0 19 -2 13 -5z m-53 -73 c0 -5 -7
-10 -15 -10 -8 0 -15 5 -15 10 0 6 7 10 15 10 8 0 15 -4 15 -10z m-159 -70 c5
0 9 4 9 9 0 5 6 11 14 14 10 4 12 -1 9 -16 -4 -17 -3 -19 6 -7 5 8 13 11 17 7
15 -14 -13 -27 -70 -32 -47 -4 -57 -2 -53 9 3 7 1 18 -5 24 -7 7 -4 10 8 9 11
-1 22 -6 26 -12 4 -5 10 -1 15 10 7 18 8 18 11 3 2 -10 8 -18 13 -18z m98 0
c-14 -9 -29 -4 -29 10 0 12 34 18 39 7 2 -5 -3 -13 -10 -17z m-3110 -98 c18
-171 18 -170 -35 -193 -25 -12 -48 -18 -51 -15 -4 3 -1 6 6 6 7 0 11 10 9 22
-3 21 -28 39 -72 53 -17 5 -18 13 -13 66 5 60 7 63 68 121 34 32 66 55 70 51
4 -4 12 -54 18 -111z m3146 108 c3 -5 1 -10 -4 -10 -6 0 -11 5 -11 10 0 6 2
10 4 10 3 0 8 -4 11 -10z m-281 -15 c-4 -8 -14 -15 -23 -15 -14 1 -13 3 3 15
25 19 27 19 20 0z m66 -19 c0 -3 -7 -3 -15 0 -8 4 -15 13 -15 21 0 12 2 12 15
-1 8 -8 15 -17 15 -20z m377 28 c-3 -3 -12 -4 -19 -1 -8 3 -5 6 6 6 11 1 17
-2 13 -5z m-3710 -96 c-3 -7 -5 -2 -5 12 0 14 2 19 5 13 2 -7 2 -19 0 -25z
m3479 -45 c-11 -11 -17 4 -9 23 7 18 8 18 11 1 2 -10 1 -21 -2 -24z m-112 -23
c4 -25 3 -31 -4 -20 -5 8 -10 26 -10 39 0 32 6 24 14 -19z m199 -59 c-10 -2
-21 -8 -25 -15 -5 -7 -8 -6 -8 4 0 13 -1 13 -11 0 -9 -13 -10 -13 -6 0 2 8 10
14 16 13 6 -2 11 4 11 12 0 13 3 13 20 3 19 -12 19 -13 3 -17z m-103 -6 c8 -9
9 -15 2 -15 -6 0 -14 5 -17 10 -4 6 -11 7 -17 4 -7 -4 -8 -2 -4 4 10 16 21 15
36 -3z m124 -21 c10 -27 7 -52 -9 -58 -8 -3 -15 -1 -15 5 0 6 -5 7 -12 3 -7
-4 -8 -3 -4 4 4 7 14 12 22 12 8 0 14 5 14 10 0 9 -14 14 -32 11 -4 0 -5 6 -2
14 8 20 30 19 38 -1z m-3557 -136 c-3 -7 -5 -2 -5 12 0 14 2 19 5 13 2 -7 2
-19 0 -25z m3988 -733 c0 -14 -3 -25 -7 -25 -5 0 -8 11 -8 25 0 14 3 25 8 25
4 0 7 -11 7 -25z"/>
<path d="M4738 7623 c12 -2 30 -2 40 0 9 3 -1 5 -23 4 -22 0 -30 -2 -17 -4z"/>
<path d="M4818 7613 c12 -2 32 -2 45 0 12 2 2 4 -23 4 -25 0 -35 -2 -22 -4z"/>
<path d="M4895 7600 c3 -5 16 -10 29 -10 12 0 27 -5 34 -12 8 -8 12 -8 12 -1
0 6 -14 16 -31 22 -40 14 -52 14 -44 1z"/>
<path d="M4990 7560 c0 -6 7 -10 15 -10 8 0 15 2 15 4 0 2 -7 6 -15 10 -8 3
-15 1 -15 -4z"/>
<path d="M5245 7190 c4 -6 11 -8 16 -5 14 9 11 15 -7 15 -8 0 -12 -5 -9 -10z"/>
<path d="M0 6749 c0 -159 4 -258 9 -254 6 3 58 10 117 16 59 5 113 14 120 19
21 18 193 39 231 28 37 -10 67 2 43 17 -7 4 -16 1 -21 -6 -6 -10 -9 -10 -9 -2
0 7 -7 10 -15 7 -8 -4 -15 -1 -15 5 0 6 4 11 9 11 16 0 6 35 -11 42 -23 10
-24 32 -1 24 13 -5 11 0 -6 18 -14 15 -29 26 -33 26 -5 0 -2 -7 7 -16 29 -29
7 -27 -39 5 -24 17 -49 31 -54 31 -6 0 -12 6 -15 13 -4 10 13 12 72 10 42 -1
88 -5 104 -7 15 -3 27 -2 27 3 0 11 -25 21 -55 21 -12 0 -36 7 -51 15 -16 8
-36 15 -44 15 -8 0 -24 7 -35 16 -17 13 -18 16 -5 24 8 5 13 10 10 10 -3 1
-22 3 -43 5 -46 5 -60 13 -53 30 2 7 -3 16 -12 19 -9 3 -30 14 -47 25 -18 12
-40 17 -55 14 -24 -5 -25 -5 -5 10 19 16 19 16 -13 23 -27 6 -32 10 -26 28 6
21 6 21 -9 1 -15 -18 -14 -21 4 -29 10 -5 19 -13 19 -18 0 -16 -19 -7 -56 27
-20 19 -38 35 -40 35 -2 0 -4 -117 -4 -261z"/>
<path d="M241 6916 c2 -2 15 -9 29 -15 24 -11 24 -11 6 3 -16 13 -49 24 -35
12z"/>
<path d="M367 6851 c22 -21 72 -45 79 -38 2 2 -20 16 -48 32 -45 24 -50 25
-31 6z"/>
<path d="M5601 6713 c-1 -6 -4 -20 -7 -30 -5 -15 -4 -16 6 -3 10 13 11 11 7
-7 -3 -15 -1 -20 9 -16 9 3 11 10 5 21 -4 10 -11 24 -14 32 -3 8 -6 10 -6 3z"/>
<path d="M5623 6642 c-9 -6 -11 -24 -6 -60 8 -72 25 -66 22 8 -1 33 -3 60 -3
60 -1 0 -7 -4 -13 -8z"/>
<path d="M842 6558 c-7 -7 -38 -11 -78 -10 -71 2 -86 -2 -78 -21 3 -9 26 -11
80 -7 68 4 78 8 85 28 9 25 8 27 -9 10z"/>
<path d="M390 6405 c-7 -8 -19 -15 -26 -15 -8 0 -14 -4 -14 -10 0 -13 18 -12
54 3 24 11 26 14 14 25 -12 10 -18 9 -28 -3z"/>
<path d="M100 6355 c0 -14 5 -25 11 -25 6 0 9 7 5 15 -3 10 1 15 12 15 15 0
15 2 2 10 -23 15 -30 12 -30 -15z"/>
<path d="M1407 6326 c-11 -9 -39 -13 -80 -11 -67 3 -184 -30 -156 -45 21 -10
266 -33 279 -25 5 3 7 17 4 29 -4 17 0 25 13 30 16 7 16 9 -7 21 -31 17 -31
17 -53 1z m-12 -56 c-3 -5 -11 -10 -16 -10 -6 0 -7 5 -4 10 3 6 11 10 16 10 6
0 7 -4 4 -10z"/>
<path d="M540 6315 c0 -2 5 -16 12 -30 12 -28 28 -33 28 -10 0 8 0 18 1 22 0
4 -9 10 -20 15 -12 4 -21 5 -21 3z"/>
<path d="M60 6280 c-43 -23 -42 -23 42 -6 37 8 77 12 88 9 11 -3 20 -1 20 5 0
18 -112 12 -150 -8z"/>
<path d="M928 6293 c7 -3 16 -2 19 1 4 3 -2 6 -13 5 -11 0 -14 -3 -6 -6z"/>
<path d="M1 6254 c0 -11 3 -14 6 -6 3 7 2 16 -1 19 -3 4 -6 -2 -5 -13z"/>
<path d="M5764 6245 c22 -17 40 -20 32 -6 -3 5 -16 11 -28 14 -22 6 -22 5 -4
-8z"/>
<path d="M5782 6119 c2 -7 10 -15 17 -17 8 -3 12 1 9 9 -2 7 -10 15 -17 17 -8
3 -12 -1 -9 -9z"/>
<path d="M1365 6030 c-3 -5 1 -10 10 -10 9 0 13 5 10 10 -3 6 -8 10 -10 10 -2
0 -7 -4 -10 -10z"/>
<path d="M1088 5943 c7 -3 16 -2 19 1 4 3 -2 6 -13 5 -11 0 -14 -3 -6 -6z"/>
<path d="M1140 5938 c0 -9 -4 -18 -10 -20 -5 -2 -6 -9 -1 -17 7 -11 11 -10 19
6 7 12 7 25 1 34 -7 12 -9 11 -9 -3z"/>
<path d="M812 5909 c2 -6 8 -10 13 -10 5 0 11 4 13 10 2 6 -4 11 -13 11 -9 0
-15 -5 -13 -11z"/>
<path d="M60 5636 c0 -7 7 -19 15 -26 10 -9 15 -9 15 -1 0 6 -5 11 -11 11 -6
0 -9 7 -5 15 3 8 1 15 -4 15 -6 0 -10 -6 -10 -14z"/>
<path d="M0 5590 c0 -5 10 -10 23 -10 18 0 19 2 7 10 -19 13 -30 13 -30 0z"/>
<path d="M1042 5458 c-15 -15 -16 -45 -2 -53 6 -4 10 5 10 19 0 14 5 26 10 26
6 0 10 5 10 10 0 14 -13 13 -28 -2z"/>
<path d="M890 5452 c0 -13 30 -71 40 -77 5 -3 12 0 16 6 4 6 -1 16 -10 21 -13
7 -16 17 -12 34 5 19 3 24 -14 24 -11 0 -20 -4 -20 -8z"/>
<path d="M60 5412 c0 -5 7 -16 16 -23 14 -12 16 -11 13 5 -4 20 -29 35 -29 18z"/>
<path d="M1030 5382 c0 -12 19 -26 26 -19 2 2 -2 10 -11 17 -9 8 -15 8 -15 2z"/>
<path d="M5022 5175 c0 -16 2 -22 5 -12 2 9 2 23 0 30 -3 6 -5 -1 -5 -18z"/>
<path d="M5012 5115 c0 -16 2 -22 5 -12 2 9 2 23 0 30 -3 6 -5 -1 -5 -18z"/>
<path d="M4782 5020 c0 -14 2 -19 5 -12 2 6 2 18 0 25 -3 6 -5 1 -5 -13z"/>
<path d="M5032 5015 c0 -16 2 -22 5 -12 2 9 2 23 0 30 -3 6 -5 -1 -5 -18z"/>
<path d="M4794 4938 c3 -45 -1 -53 -26 -49 -7 1 5 -46 20 -75 5 -10 12 -41 16
-67 5 -45 37 -100 59 -104 5 -1 14 -9 21 -19 7 -9 18 -14 24 -10 6 3 13 2 17
-4 3 -5 12 -10 20 -10 17 0 65 -43 65 -59 0 -11 4 -12 38 -15 23 -1 27 35 7
73 -9 19 -23 31 -35 31 -11 0 -20 5 -20 10 0 6 -5 10 -11 10 -24 0 -88 61 -91
88 -2 15 -9 26 -15 25 -7 -2 -13 6 -13 16 0 11 -7 26 -15 35 -8 8 -15 21 -15
29 0 8 -6 20 -14 26 -10 8 -12 24 -8 53 3 28 2 39 -6 34 -6 -3 -13 2 -16 11
-3 10 -4 -3 -2 -29z m13 -73 c9 -24 -1 -27 -15 -5 -8 13 -8 20 -2 20 6 0 13
-7 17 -15z"/>
<path d="M314 4849 c-4 -7 -2 -15 4 -17 9 -3 9 -9 1 -23 -5 -11 -7 -24 -3 -30
3 -6 8 -29 10 -52 2 -23 11 -63 19 -88 14 -42 18 -46 42 -41 24 4 25 3 20 -19
-22 -77 -18 -339 4 -339 5 0 9 9 9 20 0 11 5 20 10 20 6 0 10 -9 10 -20 0 -11
4 -20 9 -20 5 0 11 9 14 20 7 26 27 26 27 -1 0 -11 4 -17 10 -14 21 13 6 95
-69 378 -42 159 -95 261 -117 226z"/>
<path d="M1368 4853 c6 -2 18 -2 25 0 6 3 1 5 -13 5 -14 0 -19 -2 -12 -5z"/>
<path d="M1330 4839 c0 -5 5 -7 10 -4 6 3 10 8 10 11 0 2 -4 4 -10 4 -5 0 -10
-5 -10 -11z"/>
<path d="M1 4668 l-1 -177 26 -20 c28 -22 54 -27 54 -11 0 6 7 10 15 10 8 0
15 5 15 10 0 6 -4 10 -10 10 -5 0 -10 5 -10 11 0 7 11 9 30 6 29 -6 29 -6 10
13 -11 11 -24 20 -30 20 -13 0 -13 27 0 35 5 3 10 1 10 -4 0 -6 4 -11 10 -11
5 0 7 7 4 15 -7 18 -31 20 -36 4 -3 -8 -15 -9 -36 -4 -42 9 -42 23 0 17 27 -4
31 -3 21 9 -9 11 -8 19 3 33 19 27 18 47 -4 44 -18 -3 -19 8 -6 50 5 16 2 22
-10 22 -9 0 -16 7 -16 15 0 7 -6 18 -14 22 -8 4 -16 19 -19 33 -2 14 -5 -55
-6 -152z"/>
<path d="M4657 4743 c-8 -15 -4 -124 4 -111 6 8 9 1 9 -21 0 -25 -3 -32 -15
-27 -8 3 -15 1 -15 -4 0 -6 9 -10 21 -10 19 0 20 4 14 43 -4 23 -7 63 -7 90 1
46 -2 55 -11 40z"/>
<path d="M4721 4734 c0 -11 3 -14 6 -6 3 7 2 16 -1 19 -3 4 -6 -2 -5 -13z"/>
<path d="M4631 4674 c0 -11 3 -14 6 -6 3 7 2 16 -1 19 -3 4 -6 -2 -5 -13z"/>
<path d="M4681 4674 c0 -11 3 -14 6 -6 3 7 2 16 -1 19 -3 4 -6 -2 -5 -13z"/>
<path d="M1324 4645 c-17 -8 -37 -21 -45 -31 -13 -16 -12 -16 16 -1 30 16 74
47 65 46 -3 0 -19 -7 -36 -14z"/>
<path d="M4511 4634 c0 -11 3 -14 6 -6 3 7 2 16 -1 19 -3 4 -6 -2 -5 -13z"/>
<path d="M1451 4564 c-7 -8 -10 -18 -7 -21 7 -8 56 17 56 29 0 14 -34 8 -49
-8z"/>
<path d="M4692 4550 c0 -14 2 -19 5 -12 2 6 2 18 0 25 -3 6 -5 1 -5 -13z"/>
<path d="M4660 4490 c0 -5 5 -10 11 -10 5 0 7 5 4 10 -3 6 -8 10 -11 10 -2 0
-4 -4 -4 -10z"/>
<path d="M4712 4480 c0 -14 2 -19 5 -12 2 6 2 18 0 25 -3 6 -5 1 -5 -13z"/>
<path d="M5102 4475 c0 -16 2 -22 5 -12 2 9 2 23 0 30 -3 6 -5 -1 -5 -18z"/>
<path d="M4462 4460 c0 -14 2 -19 5 -12 2 6 2 18 0 25 -3 6 -5 1 -5 -13z"/>
<path d="M4492 4400 c0 -19 2 -27 5 -17 2 9 2 25 0 35 -3 9 -5 1 -5 -18z"/>
<path d="M1227 4368 c-29 -29 -63 -73 -76 -98 -22 -41 -16 -37 60 44 89 94 98
106 79 106 -6 0 -35 -24 -63 -52z"/>
<path d="M4732 4400 c0 -14 2 -19 5 -12 2 6 2 18 0 25 -3 6 -5 1 -5 -13z"/>
<path d="M4535 4400 c-3 -5 -1 -10 4 -10 6 0 11 5 11 10 0 6 -2 10 -4 10 -3 0
-8 -4 -11 -10z"/>
<path d="M4690 4395 c0 -5 5 -17 10 -25 5 -8 10 -10 10 -5 0 6 -5 17 -10 25
-5 8 -10 11 -10 5z"/>
<path d="M6770 4372 c0 -12 19 -26 26 -19 2 2 -2 10 -11 17 -9 8 -15 8 -15 2z"/>
<path d="M5103 4325 c0 -22 2 -30 4 -17 2 12 2 30 0 40 -3 9 -5 -1 -4 -23z"/>
<path d="M7100 4352 c0 -6 10 -10 23 -9 12 0 59 -3 105 -7 58 -6 82 -5 82 3 0
6 -8 11 -17 12 -10 0 -57 2 -105 5 -53 3 -88 2 -88 -4z"/>
<path d="M4481 4334 c0 -11 3 -14 6 -6 3 7 2 16 -1 19 -3 4 -6 -2 -5 -13z"/>
<path d="M7970 4330 c-27 -6 -18 -7 40 -8 51 0 67 3 50 8 -30 10 -44 10 -90 0z"/>
<path d="M7462 4318 c2 -5 8 -9 13 -9 5 0 11 4 13 9 1 5 -4 9 -13 9 -9 0 -14
-4 -13 -9z"/>
<path d="M7660 4320 c0 -5 9 -10 20 -10 11 0 20 5 20 10 0 6 -9 10 -20 10 -11
0 -20 -4 -20 -10z"/>
<path d="M4773 4280 c0 -25 2 -35 4 -22 2 12 2 32 0 45 -2 12 -4 2 -4 -23z"/>
<path d="M4471 4302 c-1 -7 -5 -10 -11 -7 -5 3 -10 -1 -10 -9 0 -8 5 -18 10
-21 12 -7 24 19 17 37 -4 10 -6 10 -6 0z"/>
<path d="M7353 4277 c5 -15 37 -22 37 -9 0 5 -9 12 -21 15 -13 3 -19 1 -16 -6z"/>
<path d="M7499 4274 c-6 -7 -8 -18 -4 -24 4 -6 1 -17 -5 -25 -11 -13 -6 -15
32 -15 33 0 50 -6 64 -21 l18 -20 8 20 c12 32 47 27 59 -9 6 -16 17 -30 25
-30 8 0 17 -7 20 -15 4 -8 15 -15 26 -15 17 0 18 2 8 15 -10 12 -10 19 -2 27
8 8 12 8 12 1 0 -6 19 -14 43 -18 32 -5 38 -9 23 -14 -27 -10 -7 -21 48 -27
29 -3 47 1 55 10 16 19 3 46 -23 46 -42 0 -166 35 -166 48 0 12 -11 13 -112
18 -64 3 -77 9 -71 32 3 15 -2 21 -21 24 -15 3 -31 0 -37 -8z m227 -91 c5 -27
-13 -30 -32 -5 -19 25 -17 34 8 30 13 -2 22 -12 24 -25z"/>
<path d="M5112 4250 c0 -19 2 -27 5 -17 2 9 2 25 0 35 -3 9 -5 1 -5 -18z"/>
<path d="M7440 4261 c0 -11 -6 -21 -12 -23 -9 -3 -8 -9 5 -22 19 -19 45 -12
28 8 -6 7 -6 17 -1 26 14 21 12 30 -5 30 -8 0 -15 -9 -15 -19z"/>
<path d="M7172 4260 c10 -6 25 -7 40 -1 20 9 18 10 -17 10 -31 0 -36 -2 -23
-9z"/>
<path d="M5190 4250 c0 -5 5 -10 11 -10 5 0 7 5 4 10 -3 6 -8 10 -11 10 -2 0
-4 -4 -4 -10z"/>
<path d="M6990 4250 c0 -5 5 -10 10 -10 6 0 10 5 10 10 0 6 -4 10 -10 10 -5 0
-10 -4 -10 -10z"/>
<path d="M5240 4230 c0 -5 5 -10 11 -10 5 0 7 5 4 10 -3 6 -8 10 -11 10 -2 0
-4 -4 -4 -10z"/>
<path d="M4770 4216 c0 -9 5 -16 10 -16 6 0 10 4 10 9 0 6 -4 13 -10 16 -5 3
-10 -1 -10 -9z"/>
<path d="M445 4210 c-22 -4 -45 -5 -53 -3 -7 3 -20 -2 -30 -10 -16 -14 -215
-77 -292 -92 -57 -11 -70 -16 -70 -27 0 -10 50 -8 300 13 117 10 128 13 167
42 32 24 42 39 43 60 0 29 -1 29 -65 17z"/>
<path d="M5345 4200 c4 -6 11 -8 16 -5 14 9 11 15 -7 15 -8 0 -12 -5 -9 -10z"/>
<path d="M1252 4188 c-18 -24 -92 -175 -92 -191 0 -15 66 -34 79 -22 9 10 -31
36 -46 31 -24 -9 -13 12 37 79 51 67 59 82 39 69 -8 -5 -8 -1 0 14 6 11 11 23
11 26 0 11 -17 6 -28 -6z"/>
<path d="M4801 4180 c0 -8 4 -22 9 -30 12 -18 12 -2 0 25 -6 13 -9 15 -9 5z"/>
<path d="M5121 4164 c0 -11 3 -14 6 -6 3 7 2 16 -1 19 -3 4 -6 -2 -5 -13z"/>
<path d="M0 4160 c0 -5 9 -10 21 -10 11 0 17 5 14 10 -3 6 -13 10 -21 10 -8 0
-14 -4 -14 -10z"/>
<path d="M4767 4164 c-2 -3 -1 -23 4 -45 6 -27 5 -45 -3 -59 -9 -14 -10 -22
-1 -31 8 -8 13 0 18 30 4 22 4 45 0 51 -3 5 -1 10 6 10 16 0 5 -110 -13 -123
-10 -6 -9 -7 4 -4 9 3 19 1 21 -6 11 -30 14 5 7 75 -6 69 -27 118 -43 102z"/>
<path d="M8000 4166 c0 -2 7 -7 16 -10 8 -3 12 -2 9 4 -6 10 -25 14 -25 6z"/>
<path d="M4571 4149 c0 -8 6 -24 14 -35 13 -17 14 -17 15 -1 0 9 -4 17 -9 17
-5 0 -12 8 -14 18 -4 13 -5 14 -6 1z"/>
<path d="M6870 4131 c0 -5 7 -12 16 -15 24 -9 28 -7 14 9 -14 17 -30 20 -30 6z"/>
<path d="M5132 4110 c0 -14 2 -19 5 -12 2 6 2 18 0 25 -3 6 -5 1 -5 -13z"/>
<path d="M8000 4115 c0 -8 2 -15 4 -15 2 0 12 -3 21 -7 15 -5 16 -3 6 15 -13
25 -31 29 -31 7z"/>
<path d="M8080 4110 c0 -11 5 -20 10 -20 6 0 10 9 10 20 0 11 -4 20 -10 20 -5
0 -10 -9 -10 -20z"/>
<path d="M4820 4083 c0 -12 5 -25 10 -28 13 -8 13 15 0 35 -8 12 -10 11 -10
-7z"/>
<path d="M4592 4055 c0 -16 2 -22 5 -12 2 9 2 23 0 30 -3 6 -5 -1 -5 -18z"/>
<path d="M5142 4070 c0 -8 6 -31 13 -50 7 -19 13 -28 13 -20 0 8 -6 31 -13 50
-7 19 -13 28 -13 20z"/>
<path d="M7978 4073 c7 -3 16 -2 19 1 4 3 -2 6 -13 5 -11 0 -14 -3 -6 -6z"/>
<path d="M5350 4062 c0 -5 22 -29 48 -53 120 -110 135 -118 211 -103 28 6 45
34 21 34 -6 0 -8 10 -5 23 5 18 1 26 -21 36 -22 10 -29 10 -36 -1 -6 -10 -10
-7 -14 10 -6 23 -10 24 -60 17 -38 -4 -54 -3 -54 5 0 7 -8 9 -19 5 -11 -3 -22
-1 -26 5 -9 15 -45 32 -45 22z"/>
<path d="M7735 4060 c-7 -12 68 -32 89 -24 15 6 15 8 -1 20 -21 15 -79 19 -88
4z"/>
<path d="M4560 4012 c0 -5 7 -15 15 -22 8 -7 15 -9 15 -6 0 4 -7 14 -15 22 -8
9 -15 11 -15 6z"/>
<path d="M7078 3993 c7 -3 16 -2 19 1 4 3 -2 6 -13 5 -11 0 -14 -3 -6 -6z"/>
<path d="M8063 3963 c9 -2 23 -2 30 0 6 3 -1 5 -18 5 -16 0 -22 -2 -12 -5z"/>
<path d="M4852 3940 c0 -14 2 -19 5 -12 2 6 2 18 0 25 -3 6 -5 1 -5 -13z"/>
<path d="M5660 3936 c0 -21 5 -26 26 -26 25 0 26 1 12 22 -22 32 -38 34 -38 4z"/>
<path d="M7024 3935 c-22 -16 -58 -20 -49 -5 3 6 2 10 -3 10 -5 0 -9 -13 -10
-30 0 -16 4 -30 9 -30 5 0 9 -7 9 -15 0 -12 6 -14 28 -8 24 6 55 8 90 4 6 0
12 -6 12 -12 0 -7 -11 -9 -30 -5 -22 4 -30 2 -30 -9 0 -8 5 -15 11 -15 8 0 8
-5 -1 -15 -17 -21 -28 -11 -24 22 2 16 2 23 -2 16 -3 -7 -11 -10 -19 -7 -9 4
-7 -11 9 -53 36 -98 36 -98 107 -101 35 -1 66 -7 69 -13 4 -5 36 -11 73 -14
37 -2 71 -6 76 -9 5 -4 11 0 14 6 3 10 11 11 37 1 32 -12 70 -4 70 16 0 19
-51 33 -104 29 -51 -4 -55 -3 -61 19 -6 25 -25 32 -25 8 0 -11 -12 -15 -45
-15 -35 0 -43 3 -39 15 4 10 0 15 -15 15 -12 0 -21 -4 -21 -10 0 -5 -6 -10
-14 -10 -8 0 -13 8 -12 18 0 10 -5 16 -14 15 -8 -1 -23 8 -32 21 -16 23 -16
25 3 42 15 13 22 15 31 6 7 -7 22 -12 35 -12 13 0 26 -6 29 -14 5 -12 9 -11
25 5 10 10 19 24 19 29 0 14 -28 12 -33 -2 -3 -10 -7 -10 -20 1 -9 7 -26 11
-37 8 -12 -3 -20 0 -20 8 0 15 73 26 124 18 22 -3 36 -2 36 5 0 5 10 8 21 5
15 -4 20 -2 18 6 -3 7 -25 14 -49 16 -170 13 -184 16 -205 35 -19 18 -23 18
-41 5z m16 -25 c0 -5 -8 -10 -17 -10 -15 0 -16 2 -3 10 19 12 20 12 20 0z"/>
<path d="M5182 3920 c0 -8 4 -26 8 -40 6 -20 8 -21 8 -5 0 11 -3 29 -8 40 -5
12 -8 14 -8 5z"/>
<path d="M4480 3891 c0 -5 5 -13 10 -16 6 -3 10 -2 10 4 0 5 -4 13 -10 16 -5
3 -10 2 -10 -4z"/>
<path d="M7520 3889 c0 -10 28 -19 56 -19 40 0 27 18 -16 22 -22 2 -40 1 -40
-3z"/>
<path d="M7865 3890 c-4 -6 5 -10 20 -10 15 0 24 4 20 10 -3 6 -12 10 -20 10
-8 0 -17 -4 -20 -10z"/>
<path d="M7950 3896 c0 -2 11 -6 25 -8 13 -3 22 -1 19 3 -5 9 -44 13 -44 5z"/>
<path d="M7280 3850 c0 -5 8 -10 19 -10 11 0 21 -9 24 -21 4 -15 11 -20 21
-16 9 4 16 1 16 -5 0 -7 14 -9 40 -5 22 3 40 2 40 -2 0 -4 20 -12 45 -18 53
-12 57 -3 13 30 -36 26 -72 42 -64 28 13 -20 -45 -27 -66 -8 -36 32 -88 48
-88 27z"/>
<path d="M4495 3830 c3 -5 8 -10 11 -10 2 0 4 5 4 10 0 6 -5 10 -11 10 -5 0
-7 -4 -4 -10z"/>
<path d="M7630 3836 c0 -2 7 -9 15 -16 12 -10 15 -10 15 4 0 9 -7 16 -15 16
-8 0 -15 -2 -15 -4z"/>
<path d="M7750 3833 c0 -15 18 -35 23 -27 3 5 -1 15 -9 22 -8 7 -14 9 -14 5z"/>
<path d="M5201 3804 c0 -11 3 -14 6 -6 3 7 2 16 -1 19 -3 4 -6 -2 -5 -13z"/>
<path d="M7562 3803 c4 -22 38 -30 38 -10 0 8 -7 18 -16 21 -23 9 -26 8 -22
-11z"/>
<path d="M7895 3810 c-3 -5 -3 -11 2 -12 4 0 13 -2 18 -3 6 -1 27 -9 49 -18
42 -19 76 -22 76 -8 0 15 -24 29 -47 25 -12 -2 -34 3 -50 11 -33 18 -40 18
-48 5z"/>
<path d="M7824 3785 c1 -17 6 -23 14 -20 8 3 26 -2 41 -11 22 -13 32 -14 47
-6 17 10 17 11 -7 12 -14 0 -35 11 -47 25 -28 33 -50 32 -48 0z"/>
<path d="M5211 3760 c0 -14 4 -34 9 -45 8 -18 9 -18 9 5 0 14 -4 34 -9 45 -8
18 -9 18 -9 -5z"/>
<path d="M7388 3763 c7 -3 16 -2 19 1 4 3 -2 6 -13 5 -11 0 -14 -3 -6 -6z"/>
<path d="M1241 3744 c0 -11 3 -14 6 -6 3 7 2 16 -1 19 -3 4 -6 -2 -5 -13z"/>
<path d="M4510 3749 c0 -5 5 -7 10 -4 6 3 10 8 10 11 0 2 -4 4 -10 4 -5 0 -10
-5 -10 -11z"/>
<path d="M5150 3731 c0 -6 4 -13 10 -16 6 -3 7 1 4 9 -7 18 -14 21 -14 7z"/>
<path d="M8080 3715 c0 -8 5 -15 10 -15 6 0 10 7 10 15 0 8 -4 15 -10 15 -5 0
-10 -7 -10 -15z"/>
<path d="M5120 3702 c0 -5 7 -15 15 -22 8 -7 15 -8 15 -2 0 5 -7 15 -15 22 -8
7 -15 8 -15 2z"/>
<path d="M7550 3690 c0 -5 5 -10 10 -10 6 0 10 5 10 10 0 6 -4 10 -10 10 -5 0
-10 -4 -10 -10z"/>
<path d="M7722 3688 c2 -6 17 -13 32 -15 26 -4 27 -3 13 11 -18 19 -50 21 -45
4z"/>
<path d="M7813 3683 c23 -4 28 -9 24 -25 -5 -16 -3 -18 6 -9 8 8 18 4 40 -17
20 -18 31 -23 34 -14 8 21 43 13 52 -12 5 -13 17 -26 26 -30 13 -4 16 -2 11 9
-3 8 0 15 7 16 7 0 0 5 -15 11 -23 8 -26 13 -18 28 16 29 12 40 -12 38 -13 0
-59 2 -103 5 -44 3 -67 3 -52 0z"/>
<path d="M8000 3665 c0 -8 7 -15 16 -15 14 0 14 3 4 15 -7 8 -14 15 -16 15 -2
0 -4 -7 -4 -15z"/>
<path d="M7080 3645 c0 -8 5 -17 10 -20 6 -3 10 -17 10 -31 0 -30 29 -89 82
-167 22 -33 37 -65 35 -72 -4 -8 3 -12 20 -12 14 0 29 -6 33 -13 6 -10 9 -9
14 1 3 8 3 -1 0 -19 -6 -37 8 -62 37 -62 10 0 26 -11 35 -25 9 -14 21 -25 28
-25 6 0 23 -11 38 -25 15 -14 30 -25 33 -25 11 0 105 -72 105 -81 0 -8 89 -54
132 -68 9 -4 27 -22 40 -41 29 -43 86 -82 109 -75 9 3 19 -1 22 -8 3 -8 26
-24 51 -37 25 -12 48 -25 51 -30 2 -4 22 -10 43 -14 22 -3 45 -13 52 -21 7 -8
19 -15 26 -15 12 0 14 56 14 325 l0 326 -67 0 c-38 1 -90 1 -116 2 -33 0 -45
3 -38 10 15 15 -28 50 -54 43 -11 -3 -26 -6 -33 -6 -9 0 -11 -8 -8 -22 3 -13
3 -17 0 -10 -3 6 -16 12 -29 12 -12 0 -36 7 -51 15 -16 8 -37 15 -47 15 -10 0
-28 5 -40 12 -23 12 -28 13 -87 16 -25 2 -31 5 -21 11 8 5 11 16 8 25 -5 12
-17 14 -56 10 -27 -2 -52 0 -56 5 -3 6 -15 7 -29 2 -17 -7 -25 -5 -35 11 -10
17 -10 22 0 29 8 5 2 8 -17 11 -16 2 -29 8 -29 15 0 6 -3 15 -7 19 -5 4 -8 -5
-8 -19 0 -20 -4 -25 -16 -20 -12 4 -15 2 -12 -8 3 -8 11 -13 18 -11 7 2 10 -3
7 -12 -4 -10 -1 -13 8 -10 8 3 21 1 31 -4 14 -8 10 -10 -20 -14 -29 -3 -36 -1
-36 13 0 10 -16 25 -37 36 -21 11 -42 29 -48 41 -5 12 -17 23 -25 23 -8 1 -27
3 -42 5 -19 2 -28 -2 -28 -11z m330 -177 c0 -6 -7 -5 -15 2 -8 7 -15 17 -15
22 0 6 7 5 15 -2 8 -7 15 -17 15 -22z m38 -57 c3 -8 -1 -12 -9 -9 -7 2 -15 10
-17 17 -3 8 1 12 9 9 7 -2 15 -10 17 -17z m402 9 c0 -5 -4 -10 -10 -10 -5 0
-10 5 -10 10 0 6 5 10 10 10 6 0 10 -4 10 -10z m0 -134 c0 -8 -7 -17 -16 -20
-23 -9 -24 -8 -24 14 0 13 7 20 20 20 11 0 20 -6 20 -14z m100 -41 c0 -8 -4
-15 -10 -15 -5 0 -10 7 -10 15 0 8 5 15 10 15 6 0 10 -7 10 -15z m96 -182 c-8
-8 -36 5 -36 17 0 7 6 7 21 0 11 -7 18 -14 15 -17z m29 -233 c3 -5 -1 -10 -9
-10 -9 0 -16 5 -16 10 0 6 4 10 9 10 6 0 13 -4 16 -10z"/>
<path d="M5202 3620 c0 -14 2 -19 5 -12 2 6 2 18 0 25 -3 6 -5 1 -5 -13z"/>
<path d="M7440 3618 c0 -11 -8 -18 -20 -18 -11 0 -20 -7 -20 -15 0 -20 12 -19
38 3 14 13 18 22 11 33 -7 11 -9 11 -9 -3z"/>
<path d="M5440 3586 c0 -9 7 -16 16 -16 9 0 14 5 12 12 -6 18 -28 21 -28 4z"/>
<path d="M1153 3558 c-11 -19 -8 -121 5 -144 9 -15 11 -1 9 68 -1 48 -3 88 -4
88 -1 0 -5 -6 -10 -12z"/>
<path d="M5030 3549 c0 -5 -4 -7 -10 -4 -5 3 -10 -1 -10 -9 0 -9 7 -16 15 -16
8 0 15 9 15 20 0 11 -2 20 -5 20 -3 0 -5 -5 -5 -11z"/>
<path d="M8050 3545 c0 -9 9 -15 25 -15 16 0 25 6 25 15 0 9 -9 15 -25 15 -16
0 -25 -6 -25 -15z"/>
<path d="M5415 3530 c-4 -6 -10 -8 -14 -6 -4 3 -8 -4 -8 -15 -2 -25 33 -25 47
0 5 11 10 22 10 25 0 10 -29 6 -35 -4z"/>
<path d="M7858 3526 c-22 -16 -13 -26 23 -26 35 0 46 16 20 29 -24 13 -22 13
-43 -3z"/>
<path d="M5486 3516 c3 -9 11 -16 16 -16 13 0 5 23 -10 28 -7 2 -10 -2 -6 -12z"/>
<path d="M6780 3520 c0 -5 5 -10 11 -10 5 0 7 5 4 10 -3 6 -8 10 -11 10 -2 0
-4 -4 -4 -10z"/>
<path d="M7678 3523 c7 -3 16 -2 19 1 4 3 -2 6 -13 5 -11 0 -14 -3 -6 -6z"/>
<path d="M4791 3474 c0 -11 3 -14 6 -6 3 7 2 16 -1 19 -3 4 -6 -2 -5 -13z"/>
<path d="M5485 3470 c-3 -5 -13 -6 -23 -3 -15 6 -15 5 -2 -11 8 -11 16 -14 18
-7 2 6 10 11 18 11 9 0 12 -4 9 -10 -3 -5 -1 -10 4 -10 6 0 11 6 11 14 0 17
-27 29 -35 16z"/>
<path d="M5608 3473 c7 -3 16 -2 19 1 4 3 -2 6 -13 5 -11 0 -14 -3 -6 -6z"/>
<path d="M5363 3451 c-24 -20 -30 -41 -13 -41 6 0 10 6 10 14 0 7 9 16 20 19
11 3 20 10 20 16 0 16 -12 13 -37 -8z"/>
<path d="M5599 3453 c-1 -5 -2 -12 -4 -18 -1 -5 -3 -16 -3 -23 -3 -21 -22 -3
-23 21 -1 16 -3 14 -10 -10 -5 -18 -16 -33 -24 -33 -9 0 -12 -6 -9 -15 4 -8 1
-15 -5 -15 -16 0 -13 36 5 54 21 21 6 20 -18 -1 -14 -13 -21 -14 -30 -5 -16
16 -28 15 -28 -2 0 -7 9 -16 20 -19 22 -6 28 -37 7 -37 -14 0 -41 -39 -33 -48
4 -3 12 2 19 10 15 19 57 33 57 19 0 -5 -4 -13 -10 -16 -16 -10 -11 -21 10
-22 20 -2 25 11 22 51 -2 13 3 16 13 12 9 -3 27 1 40 10 16 10 34 14 50 10 14
-4 25 -2 25 4 0 5 -7 10 -15 10 -8 0 -15 5 -15 11 0 7 10 9 27 5 17 -5 29 -3
34 6 12 18 11 28 -2 28 -5 0 -7 -4 -4 -10 8 -14 -12 -12 -58 3 -20 8 -34 17
-30 20 3 4 3 7 0 7 -4 0 -8 -3 -8 -7z"/>
<path d="M4795 3441 c-3 -5 -2 -12 3 -15 5 -3 9 1 9 9 0 17 -3 19 -12 6z"/>
<path d="M5745 3430 c3 -5 8 -10 11 -10 2 0 4 5 4 10 0 6 -5 10 -11 10 -5 0
-7 -4 -4 -10z"/>
<path d="M5720 3408 c0 -18 24 -41 33 -32 4 4 11 -5 17 -20 13 -35 13 -36 -5
-36 -8 0 -15 9 -15 21 0 11 -4 17 -10 14 -6 -4 -16 -2 -23 3 -15 13 -29 13
-45 0 -9 -8 -16 -8 -24 0 -17 17 -27 15 -23 -5 2 -10 4 -27 5 -38 1 -18 1 -19
11 -2 15 25 29 21 29 -9 0 -21 4 -25 20 -21 21 5 29 -8 8 -15 -6 -2 -8 -10 -4
-16 5 -8 16 -10 28 -6 16 5 20 3 15 -8 -7 -20 28 -74 38 -58 4 7 2 16 -5 20
-7 4 -10 15 -7 25 4 9 3 14 -3 10 -6 -3 -10 1 -10 9 0 9 -8 16 -17 17 -12 1
-10 4 7 9 34 11 60 11 35 0 l-20 -9 20 -2 c11 -1 32 -2 47 -3 35 -2 44 -12 28
-31 -12 -15 -4 -20 23 -16 4 0 7 -5 7 -13 0 -10 -11 -14 -32 -14 -18 0 -39 0
-45 -1 -15 -1 -18 -31 -3 -31 6 0 10 4 10 10 0 5 11 9 25 8 14 -1 24 -7 22
-12 -5 -15 41 -58 54 -50 8 4 7 9 -2 15 -19 12 -7 19 20 12 17 -4 19 -8 9 -14
-11 -8 -11 -11 1 -18 7 -5 10 -14 6 -21 -5 -9 -2 -10 14 -5 16 5 20 3 15 -9
-7 -19 0 -20 27 -6 12 7 19 21 19 40 0 20 5 30 15 30 8 0 15 4 15 9 0 5 -7 11
-15 15 -9 3 -15 0 -15 -9 0 -8 -5 -15 -11 -15 -8 0 -9 11 -5 32 6 29 5 30 -7
14 -10 -13 -16 -16 -21 -7 -4 6 -11 9 -16 6 -12 -8 -47 28 -42 43 2 7 -5 10
-17 7 -23 -4 -42 16 -22 23 8 3 4 9 -11 16 -12 7 -22 17 -21 22 1 6 -11 9 -26
6 -22 -3 -28 0 -26 15 0 10 4 24 9 31 4 7 1 12 -8 12 -10 0 -16 9 -16 22 0 12
-3 18 -7 15 -3 -4 -17 3 -30 15 -18 17 -23 18 -23 6z m20 -94 c0 -8 -4 -12
-10 -9 -5 3 -10 10 -10 16 0 5 5 9 10 9 6 0 10 -7 10 -16z m190 -140 c0 -17
-34 5 -36 23 -4 23 -4 23 16 3 11 -11 20 -23 20 -26z m50 -24 c0 -5 -4 -10
-10 -10 -5 0 -10 5 -10 10 0 6 5 10 10 10 6 0 10 -4 10 -10z"/>
<path d="M5281 3394 c0 -11 3 -14 6 -6 3 7 2 16 -1 19 -3 4 -6 -2 -5 -13z"/>
<path d="M5261 3324 c0 -11 3 -14 6 -6 3 7 2 16 -1 19 -3 4 -6 -2 -5 -13z"/>
<path d="M5590 3333 c0 -7 -7 -13 -16 -13 -8 0 -13 -4 -10 -9 9 -15 -4 -39
-23 -44 -11 -3 -20 -17 -23 -36 -5 -37 9 -41 22 -6 7 18 17 25 35 25 14 0 25
5 25 10 0 6 -5 10 -11 10 -6 0 -9 6 -6 13 2 6 9 12 15 12 17 0 18 7 4 30 -6
11 -12 14 -12 8z"/>
<path d="M7240 3315 c7 -8 17 -15 22 -15 6 0 5 7 -2 15 -7 8 -17 15 -22 15 -6
0 -5 -7 2 -15z"/>
<path d="M5860 3284 c0 -8 5 -12 10 -9 6 4 8 11 5 16 -9 14 -15 11 -15 -7z"/>
<path d="M5610 3265 c0 -8 7 -15 16 -15 14 0 14 3 4 15 -7 8 -14 15 -16 15 -2
0 -4 -7 -4 -15z"/>
<path d="M5495 3260 c-3 -5 -1 -10 4 -10 6 0 11 5 11 10 0 6 -2 10 -4 10 -3 0
-8 -4 -11 -10z"/>
<path d="M5900 3249 c0 -4 9 -11 20 -14 11 -3 20 -12 20 -18 0 -7 4 -6 10 3
15 23 12 27 -20 32 -16 3 -30 1 -30 -3z"/>
<path d="M5581 3218 c-8 -23 -4 -58 8 -58 4 0 7 18 8 40 2 45 -4 51 -16 18z"/>
<path d="M5691 3194 c13 -16 29 -19 29 -5 0 5 -9 11 -21 14 -16 4 -18 3 -8 -9z"/>
<path d="M5600 3191 c0 -15 15 -21 38 -14 32 8 27 23 -8 23 -16 0 -30 -4 -30
-9z"/>
<path d="M6048 3183 c7 -3 16 -2 19 1 4 3 -2 6 -13 5 -11 0 -14 -3 -6 -6z"/>
<path d="M0 3139 c0 -5 13 -9 29 -9 21 0 30 -6 34 -21 6 -22 28 -22 152 -5 17
3 34 5 39 5 19 2 -5 14 -31 17 -16 1 -62 5 -104 8 -42 4 -86 8 -97 11 -12 2
-22 0 -22 -6z"/>
<path d="M6076 3131 c-12 -5 -15 -10 -9 -14 6 -4 16 0 23 8 14 17 13 17 -14 6z"/>
<path d="M5761 3104 c0 -11 3 -14 6 -6 3 7 2 16 -1 19 -3 4 -6 -2 -5 -13z"/>
<path d="M5811 3096 c10 -10 59 -14 59 -5 0 5 -14 9 -32 9 -17 0 -29 -2 -27
-4z"/>
<path d="M7380 3091 c0 -6 4 -13 10 -16 6 -3 7 1 4 9 -7 18 -14 21 -14 7z"/>
<path d="M7328 3083 c7 -3 16 -2 19 1 4 3 -2 6 -13 5 -11 0 -14 -3 -6 -6z"/>
<path d="M5797 3073 c-15 -14 -6 -23 23 -23 17 0 30 5 30 11 0 5 -5 7 -10 4
-6 -4 -17 -2 -24 4 -7 6 -16 8 -19 4z"/>
<path d="M6245 3050 c3 -5 8 -10 11 -10 2 0 4 5 4 10 0 6 -5 10 -11 10 -5 0
-7 -4 -4 -10z"/>
<path d="M7498 3013 c7 -3 16 -2 19 1 4 3 -2 6 -13 5 -11 0 -14 -3 -6 -6z"/>
<path d="M6305 2980 c3 -5 8 -10 11 -10 2 0 4 5 4 10 0 6 -5 10 -11 10 -5 0
-7 -4 -4 -10z"/>
<path d="M6360 2920 c0 -5 5 -10 10 -10 6 0 10 5 10 10 0 6 -4 10 -10 10 -5 0
-10 -4 -10 -10z"/>
<path d="M7108 2883 c6 -2 18 -2 25 0 6 3 1 5 -13 5 -14 0 -19 -2 -12 -5z"/>
<path d="M7138 2863 c-10 -3 -18 -8 -18 -12 0 -9 37 -8 45 1 9 9 -7 15 -27 11z"/>
<path d="M7490 2809 c17 -14 26 -17 28 -9 5 14 -16 30 -38 30 -10 -1 -7 -7 10
-21z"/>
<path d="M6435 2810 c3 -5 18 -10 33 -10 21 0 24 2 12 10 -20 13 -53 13 -45 0z"/>
<path d="M6410 2676 c0 -9 5 -16 10 -16 6 0 10 4 10 9 0 6 -4 13 -10 16 -5 3
-10 -1 -10 -9z"/>
<path d="M6627 2669 c7 -7 15 -10 18 -7 3 3 -2 9 -12 12 -14 6 -15 5 -6 -5z"/>
<path d="M6385 2650 c-3 -5 -1 -10 4 -10 6 0 11 5 11 10 0 6 -2 10 -4 10 -3 0
-8 -4 -11 -10z"/>
<path d="M6427 2629 c8 -8 16 -8 30 0 16 9 14 10 -11 11 -22 0 -27 -3 -19 -11z"/>
<path d="M5448 2613 c7 -3 16 -2 19 1 4 3 -2 6 -13 5 -11 0 -14 -3 -6 -6z"/>
<path d="M6486 2581 c-4 -5 -2 -12 3 -15 5 -4 12 -2 15 3 4 5 2 12 -3 15 -5 4
-12 2 -15 -3z"/>
<path d="M6390 2555 c0 -8 -5 -15 -11 -15 -12 0 -38 -29 -39 -42 0 -5 5 -8 10
-8 6 0 10 7 10 15 0 18 16 20 26 4 4 -8 9 -7 15 2 7 11 9 10 9 -3 0 -21 11
-23 28 -6 18 18 14 46 -7 58 -27 14 -41 13 -41 -5z"/>
<path d="M7970 2496 c0 -8 4 -17 9 -20 5 -4 7 3 4 14 -6 23 -13 26 -13 6z"/>
<path d="M6387 2469 c4 -13 8 -18 11 -10 2 7 -1 18 -6 23 -8 8 -9 4 -5 -13z"/>
<path d="M6422 2385 c-1 -14 2 -25 7 -25 5 0 11 11 13 25 3 15 1 25 -6 25 -6
0 -13 -11 -14 -25z"/>
<path d="M7760 2251 c0 -10 30 -24 37 -17 3 2 -5 9 -16 16 -12 6 -21 7 -21 1z"/>
<path d="M7622 2160 c0 -14 2 -19 5 -12 2 6 2 18 0 25 -3 6 -5 1 -5 -13z"/>
<path d="M7857 2163 c-3 -5 -2 -15 2 -22 7 -10 10 -10 16 -1 4 6 3 16 -3 22
-5 5 -12 6 -15 1z"/>
<path d="M5235 2060 c6 -69 20 -149 30 -158 3 -4 4 4 1 18 -2 14 -8 53 -11 88
-8 83 -26 129 -20 52z"/>
<path d="M5115 2070 c-3 -6 1 -7 9 -4 18 7 21 14 7 14 -6 0 -13 -4 -16 -10z"/>
<path d="M6915 1930 c4 -6 15 -10 25 -10 10 0 20 -6 23 -12 3 -7 5 -4 4 7 -1
15 -9 21 -29 22 -16 1 -26 -2 -23 -7z"/>
<path d="M6990 1909 c0 -5 5 -7 10 -4 6 3 10 8 10 11 0 2 -4 4 -10 4 -5 0 -10
-5 -10 -11z"/>
<path d="M5240 1853 c0 -24 5 -43 10 -43 13 0 13 50 0 70 -7 11 -10 4 -10 -27z"/>
<path d="M5271 1854 c0 -11 3 -14 6 -6 3 7 2 16 -1 19 -3 4 -6 -2 -5 -13z"/>
<path d="M7055 1821 c-3 -5 -1 -12 5 -16 5 -3 10 1 10 9 0 18 -6 21 -15 7z"/>
<path d="M7240 1684 c0 -8 5 -12 10 -9 6 3 10 10 10 16 0 5 -4 9 -10 9 -5 0
-10 -7 -10 -16z"/>
<path d="M7535 1690 c3 -5 -2 -10 -12 -10 -13 0 -10 -4 11 -15 35 -19 40 -19
32 0 -3 8 -1 15 4 15 6 0 10 5 10 10 0 6 -12 10 -26 10 -14 0 -23 -4 -19 -10z"/>
<path d="M7731 1659 c-1 -10 9 -19 24 -21 13 -3 22 -1 19 3 -3 5 -11 9 -19 9
-7 0 -16 6 -18 13 -4 7 -6 6 -6 -4z"/>
<path d="M5160 1595 c-7 -9 -11 -18 -8 -20 3 -3 11 1 18 10 7 9 11 18 8 20 -3
3 -11 -1 -18 -10z"/>
<path d="M7735 1605 c23 -8 83 -10 79 -3 -3 4 -24 8 -47 7 -23 0 -37 -2 -32
-4z"/>
<path d="M5014 1535 c-10 -8 -14 -15 -8 -15 6 0 17 7 24 15 16 19 9 19 -16 0z"/>
<path d="M1136 1474 c-4 -15 -3 -30 1 -35 4 -4 9 8 10 27 2 41 -2 44 -11 8z"/>
<path d="M5100 1481 c0 -17 15 -19 28 -5 11 12 9 14 -8 14 -11 0 -20 -4 -20
-9z"/>
<path d="M7898 1453 c20 -8 13 -26 -9 -20 -16 4 -18 3 -8 -9 14 -17 -2 -19
-20 -1 -10 10 -11 9 -6 -5 4 -10 13 -18 21 -18 8 0 14 -6 14 -12 1 -7 7 2 15
21 15 34 13 52 -8 50 -9 0 -9 -2 1 -6z"/>
<path d="M7930 1400 c17 -33 17 -33 24 -22 3 5 -4 18 -16 28 -21 19 -21 19 -8
-6z"/>
<path d="M6350 1400 c0 -5 5 -10 11 -10 5 0 7 5 4 10 -3 6 -8 10 -11 10 -2 0
-4 -4 -4 -10z"/>
<path d="M1121 1384 c0 -11 3 -14 6 -6 3 7 2 16 -1 19 -3 4 -6 -2 -5 -13z"/>
<path d="M7910 1386 c0 -9 -6 -16 -12 -16 -28 -1 56 -30 86 -30 29 1 30 1 12
15 -14 11 -22 12 -27 4 -9 -16 -52 -1 -45 17 3 7 1 16 -4 19 -6 4 -10 -1 -10
-9z"/>
<path d="M8060 1297 c0 -14 -5 -15 -26 -7 -29 12 -45 5 -38 -14 3 -8 14 -12
26 -8 15 3 19 1 16 -9 -5 -15 49 -65 59 -55 4 3 1 6 -5 6 -7 0 -12 7 -12 15 0
8 5 15 10 15 17 0 11 36 -10 55 -18 16 -20 16 -20 2z"/>
<path d="M7920 1290 c0 -5 7 -10 16 -10 8 0 12 5 9 10 -3 6 -10 10 -16 10 -5
0 -9 -4 -9 -10z"/>
<path d="M1103 1240 c0 -25 2 -35 4 -22 2 12 2 32 0 45 -2 12 -4 2 -4 -23z"/>
<path d="M6116 1258 c-111 -10 -119 -19 -12 -13 79 4 108 9 95 18 -2 2 -40 -1
-83 -5z"/>
<path d="M6325 1262 c-33 -2 -64 -7 -70 -13 -11 -10 295 -1 308 10 7 7 -125 9
-238 3z"/>
<path d="M5933 1233 c9 -2 25 -2 35 0 9 3 1 5 -18 5 -19 0 -27 -2 -17 -5z"/>
<path d="M5001 1214 c0 -11 3 -14 6 -6 3 7 2 16 -1 19 -3 4 -6 -2 -5 -13z"/>
<path d="M8000 1214 c0 -7 27 -34 34 -34 13 0 5 16 -14 28 -11 7 -20 10 -20 6z"/>
<path d="M7910 1200 c-9 -6 -10 -10 -3 -10 6 0 15 5 18 10 8 12 4 12 -15 0z"/>
<path d="M6428 1183 c7 -3 16 -2 19 1 4 3 -2 6 -13 5 -11 0 -14 -3 -6 -6z"/>
<path d="M165 1168 c-73 -25 -85 -31 -85 -39 0 -5 -9 -9 -19 -9 -10 0 -29 -8
-40 -18 -19 -15 -22 -25 -19 -85 l3 -67 35 20 c19 11 51 27 70 37 19 9 38 22
42 27 5 7 8 6 8 -3 0 -10 9 -12 38 -7 79 14 216 14 245 0 15 -8 27 -12 27 -9
0 3 28 -14 61 -37 72 -49 159 -149 201 -233 17 -33 36 -67 44 -75 7 -8 17 -33
23 -55 6 -22 22 -80 35 -130 49 -177 76 -281 86 -330 6 -27 17 -74 26 -102 16
-50 19 -53 50 -53 28 0 34 4 34 21 0 23 -29 119 -41 134 -4 6 -13 42 -19 80
-6 39 -24 109 -40 157 -17 47 -30 101 -30 120 0 18 -7 42 -15 52 -8 11 -15 30
-15 43 0 31 -55 169 -87 218 -109 167 -158 226 -201 239 -11 4 -24 16 -27 26
-6 18 -28 34 -85 61 -14 6 -33 15 -42 20 -24 12 -225 9 -263 -3z"/>
<path d="M6338 1173 c6 -2 18 -2 25 0 6 3 1 5 -13 5 -14 0 -19 -2 -12 -5z"/>
<path d="M6315 1122 c-11 -2 -22 -7 -25 -11 -3 -4 -16 -12 -30 -18 -22 -10
-18 -12 38 -12 62 -1 63 -1 51 22 -14 27 -10 24 -34 19z"/>
<path d="M6636 1119 c3 -5 -21 -9 -53 -10 -52 -1 -54 -2 -24 -9 50 -12 144 -1
131 15 -12 14 -63 17 -54 4z"/>
<path d="M6440 1110 c0 -5 -11 -10 -24 -10 -14 0 -27 -4 -30 -9 -7 -11 86 -1
99 11 6 6 3 6 -9 2 -13 -5 -17 -4 -12 4 4 7 1 12 -8 12 -9 0 -16 -4 -16 -10z"/>
<path d="M4895 1069 c6 -33 15 -36 15 -6 0 15 -4 27 -9 27 -6 0 -8 -10 -6 -21z"/>
<path d="M6107 1083 c18 -2 50 -2 70 0 21 2 7 4 -32 4 -38 0 -55 -2 -38 -4z"/>
<path d="M4860 1040 c0 -5 5 -10 11 -10 5 0 7 5 4 10 -3 6 -8 10 -11 10 -2 0
-4 -4 -4 -10z"/>
<path d="M4908 1013 c6 -2 18 -2 25 0 6 3 1 5 -13 5 -14 0 -19 -2 -12 -5z"/>
<path d="M4982 990 c0 -19 2 -27 5 -17 2 9 2 25 0 35 -3 9 -5 1 -5 -18z"/>
<path d="M4908 983 c6 -2 18 -2 25 0 6 3 1 5 -13 5 -14 0 -19 -2 -12 -5z"/>
<path d="M4850 970 c0 -5 4 -10 9 -10 6 0 13 5 16 10 3 6 -1 10 -9 10 -9 0
-16 -4 -16 -10z"/>
<path d="M4911 929 c5 -22 7 -44 4 -50 -4 -5 -2 -9 3 -9 14 0 21 50 11 77 -15
39 -28 26 -18 -18z"/>
<path d="M4960 891 c0 -6 4 -13 10 -16 6 -3 7 1 4 9 -7 18 -14 21 -14 7z"/>
<path d="M6620 889 c-69 -5 -156 -11 -195 -12 -38 -2 -101 -10 -140 -18 -68
-14 -69 -14 -27 -17 23 -2 166 4 318 12 151 9 284 16 295 16 18 0 19 2 9 15
-14 17 -57 17 -260 4z"/>
<path d="M6149 873 c-2 -7 -41 -16 -89 -21 l-85 -9 80 -2 c83 -1 111 7 103 30
-3 10 -6 10 -9 2z"/>
<path d="M276 808 c-8 -29 -18 -75 -23 -103 -8 -48 -9 -50 -56 -66 -34 -13
-61 -16 -90 -11 -36 7 -44 12 -54 42 -7 19 -12 47 -12 63 -1 27 -14 36 -26 17
-7 -12 -17 -270 -10 -270 2 0 19 9 37 20 18 11 65 29 103 40 39 12 77 25 86
30 9 5 66 7 126 6 137 -4 173 -19 173 -73 0 -74 -71 -172 -174 -236 -60 -39
-119 -67 -138 -67 -7 0 -26 -7 -41 -15 -16 -8 -62 -22 -103 -32 l-74 -17 0
-49 0 -49 53 4 c50 3 52 2 49 -20 -3 -20 0 -23 25 -20 22 2 29 9 33 33 4 24
18 36 76 70 40 22 79 46 88 54 22 19 26 12 33 -55 3 -33 11 -68 17 -79 9 -17
11 -13 17 30 4 28 8 72 8 98 1 42 7 55 44 98 23 27 45 49 49 49 12 0 56 -48
62 -67 3 -10 4 20 2 67 -3 59 2 108 15 160 28 111 26 124 -22 162 l-41 33 5
65 c3 36 8 75 12 88 6 17 3 22 -9 22 -9 0 -16 -8 -16 -17 0 -10 -12 -48 -26
-86 l-26 -68 -67 3 -66 3 -1 95 c-1 55 -6 96 -12 98 -6 2 -17 -21 -26 -50z"/>
<path d="M4983 846 c-6 -7 -8 -18 -4 -24 4 -6 11 -1 18 14 12 26 5 31 -14 10z"/>
<path d="M6415 770 c-134 -6 -155 -11 -155 -36 0 -8 -7 -14 -16 -14 -9 0 -12
5 -8 12 4 7 3 8 -4 4 -29 -18 -9 -27 46 -21 31 3 202 9 380 14 178 5 326 12
329 15 3 3 0 13 -8 22 -11 13 -24 15 -69 9 -30 -4 -77 -6 -105 -5 -109 5 -266
5 -390 0z"/>
<path d="M6166 763 c-4 -4 -39 -8 -78 -9 -46 0 -72 -5 -78 -13 -4 -8 -13 -10
-19 -7 -6 4 -11 0 -11 -8 0 -13 12 -16 54 -16 29 0 82 -2 117 -5 35 -2 57 -2
48 1 -11 3 -14 14 -11 34 4 29 -6 39 -22 23z"/>
<path d="M6095 660 c-3 -5 1 -10 9 -10 9 0 16 5 16 10 0 6 -4 10 -9 10 -6 0
-13 -4 -16 -10z"/>
<path d="M6322 658 c7 -20 48 -23 48 -4 0 11 -9 16 -26 16 -16 0 -24 -5 -22
-12z"/>
<path d="M7140 611 c0 -5 5 -13 10 -16 6 -3 10 -2 10 4 0 5 -4 13 -10 16 -5 3
-10 2 -10 -4z"/>
<path d="M6264 501 c-5 -5 -50 -11 -99 -13 -77 -3 -93 -6 -113 -25 l-22 -23
38 0 c89 0 231 14 226 22 -3 4 -9 6 -14 3 -4 -3 -10 2 -13 9 -3 8 -1 17 6 19
7 2 9 7 6 10 -3 4 -10 3 -15 -2z"/>
<path d="M6823 496 c5 -12 -28 -14 -203 -14 -207 -1 -300 -7 -300 -22 0 -9
467 -4 511 5 25 6 27 9 19 26 -12 22 -35 26 -27 5z"/>
<path d="M1351 475 c0 -16 6 -50 13 -75 19 -58 19 -15 1 55 -10 41 -13 45 -14
20z"/>
<path d="M7022 479 c-95 -5 -94 -5 46 -7 93 -1 142 2 142 8 0 7 -18 10 -45 8
-25 -2 -89 -6 -143 -9z"/>
<path d="M170 471 c-94 -29 -160 -94 -160 -159 0 -25 6 -32 44 -46 52 -20 84
-14 143 26 56 38 73 64 73 115 0 61 -35 83 -100 64z m50 -56 c28 -34 -38 -115
-93 -115 -27 0 -57 23 -57 44 0 22 25 47 65 66 50 23 69 24 85 5z"/>
<path d="M7138 443 c12 -2 32 -2 45 0 12 2 2 4 -23 4 -25 0 -35 -2 -22 -4z"/>
<path d="M6320 400 c-63 -5 -155 -10 -205 -13 -106 -7 -95 -4 -95 -18 0 -9 45
-10 173 -4 94 4 213 9 262 11 50 1 95 3 100 4 20 2 -71 30 -95 28 -14 0 -77
-4 -140 -8z"/>
<path d="M6967 403 c18 -2 50 -2 70 0 21 2 7 4 -32 4 -38 0 -55 -2 -38 -4z"/>
<path d="M7113 403 c9 -2 23 -2 30 0 6 3 -1 5 -18 5 -16 0 -22 -2 -12 -5z"/>
<path d="M7188 403 c6 -2 18 -2 25 0 6 3 1 5 -13 5 -14 0 -19 -2 -12 -5z"/>
<path d="M6753 393 c20 -2 54 -2 75 0 20 2 3 4 -38 4 -41 0 -58 -2 -37 -4z"/>
<path d="M6148 343 c6 -2 18 -2 25 0 6 3 1 5 -13 5 -14 0 -19 -2 -12 -5z"/>
<path d="M6038 333 c6 -2 18 -2 25 0 6 3 1 5 -13 5 -14 0 -19 -2 -12 -5z"/>
<path d="M7017 334 c-1 -2 -57 -4 -122 -4 -138 -2 -283 -15 -317 -30 -16 -7
68 -9 277 -5 385 6 499 14 484 31 -7 9 -52 12 -164 12 -85 -1 -156 -2 -158 -4z"/>
<path d="M6365 300 c-33 -4 -118 -9 -190 -11 -71 -1 -105 -5 -75 -7 83 -6 380
9 380 19 0 10 -26 10 -115 -1z"/>
<path d="M7450 286 c0 -8 5 -18 10 -21 6 -3 10 1 10 9 0 8 -4 18 -10 21 -5 3
-10 -1 -10 -9z"/>
<path d="M1380 271 c0 -10 7 -32 16 -47 l16 -29 -6 34 c-3 18 -6 40 -6 47 0 8
-4 14 -10 14 -5 0 -10 -8 -10 -19z"/>
<path d="M7030 275 c-230 -10 -296 -22 -95 -17 277 7 444 15 439 23 -3 5 -22
8 -42 7 -20 -1 -156 -7 -302 -13z"/>
<path d="M6293 250 c-133 -3 -245 -9 -250 -13 -4 -5 114 -6 262 -3 149 3 304
6 345 7 74 1 75 1 25 9 -27 5 -70 8 -95 7 -25 -1 -154 -4 -287 -7z"/>
<path d="M6536 185 c-4 -11 1 -15 19 -15 18 0 23 4 19 15 -4 8 -12 15 -19 15
-7 0 -15 -7 -19 -15z"/>
<path d="M6658 153 c18 -2 45 -2 60 0 15 2 0 4 -33 4 -33 0 -45 -2 -27 -4z"/>
<path d="M7160 150 c-40 -6 -36 -7 33 -8 50 -1 76 2 72 8 -7 11 -35 11 -105 0z"/>
<path d="M7320 151 c0 -9 149 -3 159 5 2 2 -32 4 -77 4 -45 0 -82 -4 -82 -9z"/>
<path d="M1443 35 c0 -22 2 -30 4 -17 2 12 2 30 0 40 -3 9 -5 -1 -4 -23z"/>
<path d="M1994 46 c-16 -12 -15 -15 20 -31 39 -19 50 -17 41 6 -10 27 -41 39
-61 25z"/>
<path d="M5361 33 c-1 -18 4 -33 9 -33 12 0 12 17 0 45 -7 17 -9 15 -9 -12z"/>
<path d="M7237 54 c-3 -3 -1 -17 5 -30 14 -29 38 -33 31 -4 -6 22 -27 43 -36
34z"/>
<path d="M7650 50 c0 -5 5 -10 11 -10 5 0 7 5 4 10 -3 6 -8 10 -11 10 -2 0 -4
-4 -4 -10z"/>
<path d="M6633 31 c1 -11 7 -23 14 -25 17 -7 16 4 -2 28 -13 18 -14 18 -12 -3z"/>
<path d="M6880 9 c-19 -3 53 -7 160 -7 107 0 191 1 185 3 -21 7 -312 11 -345
4z"/>
<path d="M6513 3 c15 -2 39 -2 55 0 15 2 2 4 -28 4 -30 0 -43 -2 -27 -4z"/>
</g>
</svg>
